<svg xmlns="http://www.w3.org/2000/svg" width="24" height="24" viewBox="0 0 24 24">
<path fill="#1DE9B6" d="M7.5,16.5c0,0.41,0.34,0.75,0.75,0.75H9v2.62C9,20.5,9.5,21,10.12,21c0.62,0,1.12-0.5,1.12-1.12v-2.62h1.5
v2.62c0,0.62,0.5,1.12,1.12,1.12C14.5,21,15,20.5,15,19.88v-2.62h0.75c0.41,0,0.75-0.34,0.75-0.75V9h-9V16.5z M5.62,9
C5,9,4.5,9.5,4.5,10.12v5.25C4.5,16,5,16.5,5.62,16.5s1.12-0.5,1.12-1.12v-5.25C6.75,9.5,6.25,9,5.62,9z M18.38,9
c-0.62,0-1.12,0.5-1.12,1.12v5.25c0,0.62,0.5,1.12,1.12,1.12s1.12-0.5,1.12-1.12v-5.25C19.5,9.5,19,9,18.38,9z M14.65,4.62
l0.97-0.97c0.15-0.15,0.15-0.38,0-0.53s-0.38-0.15-0.53,0l-1.11,1.11c-0.59-0.3-1.27-0.47-1.98-0.47c-0.72,0-1.39,0.17-1.99,0.47
L8.89,3.11c-0.15-0.15-0.38-0.15-0.53,0c-0.15,0.15-0.15,0.38,0,0.53l0.98,0.98C8.23,5.45,7.5,6.76,7.5,8.25h9
C16.5,6.76,15.77,5.44,14.65,4.62z M10.5,6.75H9.75V6h0.75V6.75z M14.25,6.75H13.5V6h0.75V6.75z"/>
</svg>