<svg xmlns="http://www.w3.org/2000/svg" viewBox="0 0 250.59 75.61"><defs><style>.cls-1{fill:#f531d0;}.cls-2{fill:#28d5b8;}.cls-3{fill:#fff;}</style></defs><title>Asset 2</title><g id="Layer_2" data-name="Layer 2"><g id="Layer_1-2" data-name="Layer 1"><path class="cls-1" d="M172.9,0V14.61c12.95,0,12.95,46.39,25.89,46.39s13-46.39,25.9-46.39S237.64,61,250.59,61V0Z"/><path class="cls-2" d="M224.69,14.61c-12.95,0-12.95,46.39-25.9,46.39S185.85,14.61,172.9,14.61v61h77.69V61C237.64,61,237.64,14.61,224.69,14.61Z"/><path class="cls-3" d="M148,38.52H123c.32,4.94,1.63,9.09,6,11.37,5.35,2.76,10.46,1.86,15.09-2a7.47,7.47,0,0,1,3,2.64,13.66,13.66,0,0,1-8.56,5.18C128,57.94,119.29,52,117.86,41.33A23.26,23.26,0,0,1,119.58,28,15.63,15.63,0,0,1,136,19c7,1.09,11,5.54,12.06,13.27A19.44,19.44,0,0,1,148,38.52Zm-24.51-5.08h18.88c.44-5.64-2.93-10-7.86-10.34C128.44,22.66,124,26.69,123.44,33.44Z"/><path class="cls-3" d="M39.42,38.56c0-10.38,4.76-17.35,12.62-19.22a15.34,15.34,0,0,1,17.31,7.58,21.72,21.72,0,0,1,1,19.36,15.57,15.57,0,0,1-16.52,9.79c-7.43-1-12.91-6.63-14.11-14.56C39.49,40.25,39.45,39,39.42,38.56Zm26.76-1.22a16.61,16.61,0,0,0-2.35-9c-4.16-6.5-12.62-6.48-16.38.26a17.21,17.21,0,0,0,.34,18.22c3.8,6.23,11.84,6.15,15.84,0A16.84,16.84,0,0,0,66.18,37.34Z"/><path class="cls-3" d="M85.7,55.37a13.14,13.14,0,0,1-4.73,0V19.85c1.55-.73,3.16-.41,4.73-.23.9,1.71,0,3.6.89,5.48,2.49-2.63,5-4.91,8.47-5.79,5.56-1.43,10.31,1,12.22,6.38a13.83,13.83,0,0,1,.94,4.31c.08,8.36,0,16.71,0,25.16-1.6.73-3.21.44-4.91.2-.57-2.71-.24-5.36-.28-8-.09-5.41,0-10.82-.17-16.23-.1-2.95-1-5.77-4-7s-5.81-.18-8.27,1.66A10.85,10.85,0,0,0,86.13,35q0,8.56,0,17.13A6.05,6.05,0,0,1,85.7,55.37Z"/><path class="cls-3" d="M19.19,11.22V55.4H13.84v-44H.63C-.31,9.73,0,8.31.26,6.67H33.2c.6,1.47.32,2.89.14,4.55Z"/><path class="cls-3" d="M161,56.14A4.45,4.45,0,1,1,165.48,52,4.61,4.61,0,0,1,161,56.14Z"/><path class="cls-3" d="M245.38,24.71a9.49,9.49,0,0,1-3,3.56c-3.17-3.59-7.07-5.56-11.93-5.15a12.11,12.11,0,0,0-3.42.76c-3.43,1.37-3.91,4.55-1.08,6.91,2.09,1.74,4.67,2.5,7.2,3.28a61.59,61.59,0,0,1,7.44,2.78c8.29,3.79,6.48,13.33.82,16.91-6.8,4.29-19.07,2.69-24.56-3.39a17.82,17.82,0,0,1,3.05-4.89,14.06,14.06,0,0,0,13.4,5.88,13.18,13.18,0,0,0,4.26-1,4.9,4.9,0,0,0,3.19-4.25,4.7,4.7,0,0,0-2.67-4.56,35.62,35.62,0,0,0-7.65-3c-3.29-1.05-6.49-2.32-9.08-4.72-4.35-4-3.54-10.26,1.65-13.08C229.76,17,240,18.79,245.38,24.71Z"/><path class="cls-3" d="M196,24.2H183.53a6.38,6.38,0,0,1,0-4.61h17.93c.86.93.51,2.06.51,3.09q0,14.9,0,29.79a35.87,35.87,0,0,1-.32,5.29c-.81,5.31-3.56,9.2-8.85,10.71a15,15,0,0,1-15.54-4,15,15,0,0,1,3-4.2c2.35,2.24,4.68,4.26,8.2,4.08s6.21-1.94,7.23-5.37a13,13,0,0,0,.61-3.48c.05-10,0-20.05,0-30.08A6.37,6.37,0,0,0,196,24.2Z"/><path class="cls-3" d="M202.63,8.25a4.07,4.07,0,0,1-3.72,4.17,4.17,4.17,0,1,1,3.72-4.17Z"/></g></g></svg>