<?xml version="1.0" encoding="UTF-8"?>
<svg width="18px" height="18px" viewBox="0 0 18 18" version="1.1" xmlns="http://www.w3.org/2000/svg" xmlns:xlink="http://www.w3.org/1999/xlink">
    <!-- Generator: Sketch 52.4 (67378) - http://www.bohemiancoding.com/sketch -->
    <title>check-circle</title>
    <desc>Created with Sketch.</desc>
    <g id="页面-1" stroke="none" stroke-width="1" fill="none" fill-rule="evenodd">
        <g id="开探2-" transform="translate(-77.000000, -260.000000)">
            <g id="check-circle" transform="translate(77.000000, 260.000000)">
                <g id="分组">
                    <path d="M9,0 C4.02991071,0 0,4.02991071 0,9 C0,13.9700893 4.02991071,18 9,18 C13.9700893,18 18,13.9700893 18,9 C18,4.02991071 13.9700893,0 9,0 Z" id="形状" fill="#D4DEE7" fill-rule="nonzero"></path>
                    <path d="M12.7566964,5.80580357 L11.8145089,5.80580357 C11.6095982,5.80580357 11.4147321,5.90424107 11.2941964,6.07299107 L8.13616071,10.4524554 L6.70580357,8.46763393 C6.58526786,8.30089286 6.39241071,8.20044643 6.18549107,8.20044643 L5.24330357,8.20044643 C5.11272321,8.20044643 5.03638393,8.34910714 5.11272321,8.45558036 L7.61584821,11.9270089 C7.87098214,12.2825893 8.39933036,12.2825893 8.65446429,11.9270089 L12.8852679,6.0609375 C12.9636161,5.95446429 12.8872768,5.80580357 12.7566964,5.80580357 Z" id="路径" fill="#FFFFFF"></path>
                </g>
            </g>
        </g>
    </g>
</svg>