<?xml version="1.0" encoding="utf-8"?>
<!-- Generator: Adobe Illustrator 16.0.0, SVG Export Plug-In . SVG Version: 6.00 Build 0)  -->
<!DOCTYPE svg PUBLIC "-//W3C//DTD SVG 1.1//EN" "http://www.w3.org/Graphics/SVG/1.1/DTD/svg11.dtd">
<svg version="1.1" id="Layer_1" xmlns="http://www.w3.org/2000/svg" xmlns:xlink="http://www.w3.org/1999/xlink" x="0px" y="0px"
	 width="50px" viewBox="0 0 595.28 841.89" enable-background="new 0 0 595.28 841.89" xml:space="preserve">
<path fill-rule="evenodd" clip-rule="evenodd" fill="#FFFFFF" d="M24.48,599.11l-4.351,20.54c-2.61,12.43,8.66,24.6,19.34,24.6
	H556.28c10.67,0,21.95-11.07,19.34-24.6l-4.351-20.54c-4.359-12.431-8.67-24.61-19.35-24.61H43.83
	C33.15,574.5,26.22,585.58,24.48,599.11z"/>
<path fill-rule="evenodd" clip-rule="evenodd" fill="#F3F3F3" d="M45.2,639.96c8.189,1.3,18.069,2.56,27.89,2.56h475.09
	c9.551,0,19.62-9.539,17.84-21.289c-0.97-5.98-1.979-12-3.039-18.051c-3.431-10.92-6.961-21.72-16.121-22.239L532.41,578.8
	c-7.811-1.3-15.66-2.56-24.33-2.56H51.79c-9.851,0-16.34,9.8-18.23,21.92c-1.489,6.21-2.89,12.51-4.199,18.84
	C26.98,628.23,36.34,639.25,45.2,639.96z"/>
<path fill-rule="evenodd" clip-rule="evenodd" fill="#E6E6E5" d="M50.14,636.26c6.58,2.41,16.32,4.771,25.931,4.771h465.119
	c8.58,0,17.61-8.23,16.541-18.45c-0.551-5.22-1.181-10.53-1.91-15.89c-2.62-9.62-5.48-19.221-13.32-20.2l-12.73-3.99
	c-7.13-2.41-14.289-4.77-22.93-4.77H58.66c-9.13,0-15.25,8.72-17.271,19.619c-1.51,5.66-2.87,11.48-4.06,17.37
	C35.14,624.91,42.85,634.93,50.14,636.26z"/>
<path fill-rule="evenodd" clip-rule="evenodd" fill="#D4D4D4" d="M54.45,633.03c5.17,3.38,14.8,6.7,24.229,6.7H535.1
	c7.73,0,15.851-7.08,15.41-15.961c-0.199-4.569-0.479-9.25-0.92-14.02c-1.92-8.49-4.2-17.05-10.9-18.42l-11.22-5.6
	c-6.54-3.381-13.09-6.7-21.72-6.7H64.64c-8.489,0-14.29,7.77-16.42,17.609c-1.54,5.181-2.859,10.58-3.939,16.08
	C42.25,622.02,48.53,631.16,54.45,633.03z"/>
<path fill-rule="evenodd" clip-rule="evenodd" fill="#C2C2C2" d="M58.24,630.19c3.939,4.239,13.449,8.399,22.72,8.399h448.79
	c6.98,0,14.3-6.08,14.41-13.78c0.12-3.989,0.13-8.13-0.061-12.369c-1.3-7.5-3.06-15.141-8.75-16.86l-9.91-7.01
	c-6.01-4.24-12.039-8.4-20.64-8.4H69.91c-7.95,0-13.46,6.94-15.68,15.84c-1.561,4.76-2.86,9.8-3.841,14.96
	C48.51,619.47,53.52,627.85,58.24,630.19z"/>
<path fill-rule="evenodd" clip-rule="evenodd" fill="#ACACAC" d="M61.84,627.49c2.771,5.05,12.18,10.01,21.3,10.01H524.66
	c6.27,0,12.83-5.12,13.46-11.71c0.42-3.44,0.71-7.05,0.77-10.79c-0.72-6.55-1.989-13.33-6.72-15.37l-8.65-8.36
	c-5.52-5.05-11.039-10.01-19.619-10.01H74.91c-7.42,0-12.65,6.141-14.971,14.16c-1.59,4.35-2.85,9.05-3.739,13.88
	C54.46,617.05,58.27,624.7,61.84,627.49z"/>
<path fill-rule="evenodd" clip-rule="evenodd" fill="#8C8C8C" d="M65.49,624.76c1.58,5.87,10.88,11.641,19.85,11.641H519.5
	c5.561,0,11.35-4.15,12.51-9.601c0.721-2.89,1.29-5.97,1.6-9.21c-0.129-5.59-0.899-11.479-4.659-13.859l-7.38-9.73
	c-5.021-5.87-10.03-11.64-18.59-11.64h-423c-6.891,0-11.851,5.34-14.261,12.46c-1.609,3.939-2.83,8.29-3.64,12.8
	C60.48,614.6,63.08,621.52,65.49,624.76z"/>
<path fill-rule="evenodd" clip-rule="evenodd" fill="#6A6A6A" d="M69.18,621.99c0.38,6.71,9.58,13.29,18.391,13.29h426.71
	c4.829,0,9.829-3.16,11.53-7.471c1.039-2.319,1.89-4.869,2.449-7.59c0.471-4.63,0.2-9.63-2.58-12.34l-6.09-11.11
	c-4.5-6.71-8.99-13.289-17.54-13.289H85.12c-6.351,0-11.03,4.52-13.54,10.729c-1.63,3.53-2.83,7.521-3.54,11.7
	C66.59,612.12,67.95,618.29,69.18,621.99z"/>
<path fill-rule="evenodd" clip-rule="evenodd" fill="#484848" d="M72.93,619.18c-0.85,7.561,8.24,14.971,16.91,14.971h419.15
	c4.09,0,8.31-2.17,10.55-5.311c1.35-1.75,2.49-3.76,3.3-5.96c1.08-3.649,1.32-7.74-0.46-10.8l-4.79-12.5
	c-3.99-7.561-7.95-14.97-16.48-14.97H90.32c-5.811,0-10.2,3.699-12.811,8.979c-1.649,3.12-2.81,6.74-3.439,10.58
	C72.77,609.61,72.88,615.01,72.93,619.18z"/>
<path fill-rule="evenodd" clip-rule="evenodd" fill="#242424" d="M80.189,602.42l-3.47,13.92c-2.08,8.41,6.9,16.66,15.41,16.66
	h411.5c8.5,0,17.479-7.5,15.4-16.66l-3.47-13.92c-3.461-8.42-6.9-16.67-15.4-16.67H95.59C87.09,585.75,81.57,593.25,80.189,602.42z"
	/>
<linearGradient id="SVGID_1_" gradientUnits="userSpaceOnUse" x1="308.8154" y1="522.2441" x2="304.3146" y2="308.5892">
	<stop  offset="0" style="stop-color:#1F2A47"/>
	<stop  offset="1" style="stop-color:#45557D"/>
</linearGradient>
<path fill-rule="evenodd" clip-rule="evenodd" fill="url(#SVGID_1_)" d="M511.91,614.67l-424.5-3l-38.7-231.1l34.14-71.811
	l25.9-5.88l368.43-1.18l40.021,9.42l45.899,76.51L511.91,614.67z M452.15,464.25l12.539-98.69c1.461-11.39-4.25-20.899-12.789-20.89
	l0,0c-8.54,0-16.49,9.5-17.711,20.88l-10.779,98.61c-1.09,10.13,5.899,18.149,13.72,18.18h0.01
	C444.96,482.36,450.85,474.38,452.15,464.25z M402.55,464.06l8.59-98.529c1.011-11.37-5.06-20.87-13.569-20.86l0,0
	c-8.511,0-16.051,9.48-16.83,20.84l-6.84,98.46c-0.69,10.11,5.09,18.12,12.899,18.15l0,0C394.6,482.15,401.65,474.17,402.55,464.06z
	 M350.89,463.87l4.681-98.38c0.56-11.351-5.86-20.82-14.34-20.82l0,0c-8.48,0-15.631,9.47-15.95,20.811l-2.94,98.3
	c-0.29,10.1,5.79,18.1,13.57,18.13l0,0C343.689,481.93,350.4,473.97,350.89,463.87z M293.45,463.68l0.79-98.22
	c0.1-11.33-6.67-20.79-15.12-20.79l0,0c-8.45,0-15.2,9.45-15.07,20.771l0.931,98.149c0.109,10.08,6.489,18.07,14.239,18.101h0.011
	C286.98,481.71,293.35,473.76,293.45,463.68z M236.21,463.49l-3.08-98.07c-0.34-11.31-7.46-20.76-15.88-20.75l0,0
	c-8.42,0-14.78,9.43-14.21,20.74l4.79,97.99c0.51,10.069,7.18,18.04,14.91,18.069l0,0C230.47,481.5,236.51,473.56,236.21,463.49z
	 M179.17,463.3l-6.92-97.91c-0.78-11.3-8.25-20.729-16.64-20.72l0,0c-8.391,0-14.36,9.42-13.341,20.7l8.61,97.84
	c0.9,10.05,7.86,18.021,15.57,18.05C174.15,481.28,179.86,473.36,179.17,463.3z"/>
<path fill-rule="evenodd" clip-rule="evenodd" fill="#45527A" d="M511.07,314.94l-16.4,134.84c-0.85,7.02-6.06,12.33-11.62,11.859
	l0,0c-5.56-0.47-9.38-6.55-8.53-13.569l16.4-134.851c0.85-7.01,6.061-12.319,11.62-11.85l0,0
	C508.1,301.84,511.92,307.92,511.07,314.94z"/>
<path fill-rule="evenodd" clip-rule="evenodd" fill="#4B5881" d="M483.39,461.01L483.39,461.01c4.841,0.41,9.46-4.95,10.311-11.97
	l16.239-133.6c0.86-7.011-2.379-13.04-7.22-13.45l0,0l0,0c-4.84-0.41-9.46,4.95-10.31,11.97l-16.24,133.59
	C475.31,454.57,478.55,460.6,483.39,461.01z"/>
<path fill-rule="evenodd" clip-rule="evenodd" fill="#4F5D85" d="M483.72,460.38L483.72,460.38c4.12,0.351,8.16-5.06,9.011-12.08
	l16.09-132.35c0.85-7.01-1.801-12.99-5.91-13.34c0,0,0,0-0.01,0l0,0c-4.11-0.351-8.15,5.06-9,12.08L477.81,447.04
	C476.95,454.05,479.6,460.03,483.72,460.38z"/>
<path fill-rule="evenodd" clip-rule="evenodd" fill="#54648A" d="M484.06,459.75L484.06,459.75c3.4,0.29,6.851-5.17,7.7-12.19
	l15.94-131.1c0.85-7.02-1.21-12.94-4.61-13.229l0,0l0,0c-3.4-0.29-6.85,5.18-7.7,12.189l-15.939,131.1
	C478.6,453.54,480.66,459.47,484.06,459.75z"/>
<path fill-rule="evenodd" clip-rule="evenodd" fill="#5A6A90" d="M484.39,459.12L484.39,459.12c2.681,0.229,5.55-5.28,6.4-12.3
	l15.79-129.851c0.85-7.02-0.63-12.89-3.3-13.12c-0.011,0-0.011,0-0.011,0l0,0c-2.67-0.22-5.539,5.29-6.39,12.301L481.09,446.01
	C480.24,453.02,481.72,458.9,484.39,459.12z"/>
<path fill-rule="evenodd" clip-rule="evenodd" fill="#5F6F94" d="M484.73,458.5L484.73,458.5c1.959,0.16,4.239-5.4,5.09-12.42
	l15.64-128.6c0.851-7.021-0.05-12.841-2-13.011l0,0l0,0c-1.96-0.16-4.24,5.4-5.09,12.42L482.73,445.49
	C481.88,452.51,482.77,458.33,484.73,458.5z"/>
<path fill-rule="evenodd" clip-rule="evenodd" fill="#63739C" d="M504.33,317.99l-15.48,127.35c-0.85,7.021-2.55,12.63-3.779,12.53
	l0,0c-1.24-0.101-1.551-5.88-0.7-12.9l15.489-127.35c0.851-7.021,2.551-12.63,3.78-12.53l0,0
	C504.88,305.19,505.189,310.97,504.33,317.99z"/>
<path fill-rule="evenodd" clip-rule="evenodd" fill="#45527A" d="M92.35,315.64l7.801,161.99c0.409,8.43,5.27,15.05,10.85,14.78l0,0
	c5.58-0.271,9.78-7.33,9.38-15.76l-7.8-161.98c-0.4-8.43-5.26-15.05-10.85-14.79l0,0C96.15,300.15,91.95,307.21,92.35,315.64z"/>
<path fill-rule="evenodd" clip-rule="evenodd" fill="#4B5A81" d="M110.71,483.29c4.86-0.23,8.45-7.26,8.021-15.69L111.1,315.47
	c-0.43-8.43-4.729-15.09-9.59-14.859l0,0c-4.859,0.239-8.45,7.26-8.02,15.689l7.63,152.141
	C101.56,476.87,105.85,483.52,110.71,483.29L110.71,483.29z"/>
<path fill-rule="evenodd" clip-rule="evenodd" fill="#525F86" d="M110.42,474.16c4.13-0.19,7.12-7.19,6.66-15.61l-7.47-142.29
	c-0.45-8.43-4.181-15.109-8.32-14.92l0,0c-4.13,0.2-7.12,7.2-6.66,15.62l7.47,142.29C102.56,467.67,106.28,474.36,110.42,474.16
	L110.42,474.16z"/>
<path fill-rule="evenodd" clip-rule="evenodd" fill="#58678A" d="M110.13,465.04c3.41-0.16,5.78-7.12,5.3-15.55l-7.3-132.431
	c-0.479-8.43-3.64-15.14-7.05-14.989h-0.01c-3.41,0.16-5.78,7.13-5.301,15.55l7.301,132.439
	C103.55,458.48,106.71,465.19,110.13,465.04L110.13,465.04z"/>
<path fill-rule="evenodd" clip-rule="evenodd" fill="#5D6C8F" d="M109.83,455.91c2.689-0.11,4.46-7.05,3.95-15.47L106.64,317.85
	c-0.5-8.42-3.1-15.159-5.779-15.05l0,0c-2.69,0.12-4.46,7.061-3.96,15.48l7.149,122.59c0.5,8.42,3.101,15.16,5.78,15.05V455.91z"/>
<path fill-rule="evenodd" clip-rule="evenodd" fill="#657094" d="M109.54,446.79c1.97-0.08,3.13-6.98,2.6-15.4L105.16,318.65
	c-0.53-8.431-2.561-15.2-4.521-15.12l0,0c-1.97,0.09-3.13,6.989-2.6,15.41l6.979,112.739C105.55,440.1,107.58,446.87,109.54,446.79
	L109.54,446.79z"/>
<path fill-rule="evenodd" clip-rule="evenodd" fill="#69789C" d="M99.18,319.6L106,422.49c0.55,8.42,2.01,15.22,3.25,15.18l0,0
	c1.24-0.05,1.8-6.92,1.24-15.34l-6.82-102.89c-0.55-8.421-2.01-15.221-3.25-15.181l0,0C99.18,304.31,98.62,311.18,99.18,319.6z"/>
<rect x="87.4" y="526.92" fill-rule="evenodd" clip-rule="evenodd" fill="#192136" width="427.51" height="82.5"/>
<path fill-rule="evenodd" clip-rule="evenodd" fill="#808FB5" d="M97.16,606.42v-165h410.25v165H97.16z M478.59,576.7l12.53-98.69
	c1.47-11.39-4.25-20.899-12.78-20.89h-0.01c-8.53-0.01-16.48,9.5-17.7,20.87l-10.78,98.62c-1.09,10.12,4.391,18.149,12.221,18.18
	l0,0C469.9,594.81,477.29,586.83,478.59,576.7z M413.98,576.51l8.59-98.529c1.01-11.381-5.061-20.87-13.561-20.86H409
	c-8.5-0.01-16.05,9.479-16.82,20.84l-6.85,98.46c-0.68,10.11,5.1,18.12,12.9,18.15l0,0C406.04,594.59,413.08,586.62,413.98,576.51z
	 M349.58,576.32l4.68-98.38c0.55-11.351-5.87-20.83-14.35-20.82l0,0c-8.48,0-15.62,9.46-15.94,20.8l-2.95,98.311
	c-0.279,10.09,5.801,18.09,13.57,18.13h0.01C342.38,594.38,349.08,586.42,349.58,576.32z M285.38,576.13l0.79-98.22
	c0.11-11.34-6.66-20.8-15.11-20.79h-0.01c-8.45,0-15.189,9.45-15.069,20.77l0.939,98.15c0.11,10.08,6.49,18.07,14.24,18.1l0,0
	C278.91,594.16,285.29,586.21,285.38,576.13z M221.39,575.94l-3.069-98.07c-0.34-11.311-7.46-20.76-15.891-20.75l0,0
	c-8.42-0.01-14.77,9.43-14.199,20.729l4.789,98c0.5,10.061,7.17,18.04,14.9,18.07l0,0C215.65,593.94,221.689,586.01,221.39,575.94z
	 M157.6,575.75l-6.91-97.92c-0.779-11.29-8.25-20.72-16.64-20.71l0,0c-8.399-0.01-14.36,9.42-13.35,20.7l8.62,97.84
	c0.899,10.05,7.859,18.02,15.569,18.05C152.59,593.73,158.3,585.8,157.6,575.75z"/>
<linearGradient id="SVGID_2_" gradientUnits="userSpaceOnUse" x1="306.5" y1="408.4204" x2="306.5" y2="619.1704">
	<stop  offset="0" style="stop-color:#45557D"/>
	<stop  offset="0.38" style="stop-color:#45557D"/>
	<stop  offset="0.58" style="stop-color:#58678A"/>
	<stop  offset="0.81" style="stop-color:#45557D"/>
	<stop  offset="1" style="stop-color:#45557D"/>
</linearGradient>
<path fill-rule="evenodd" clip-rule="evenodd" fill="url(#SVGID_2_)" d="M72.3,612.45L47.54,422.94h517.92l-34.18,189.51
	c-0.57,8.55-7.69,15.3-16.38,15.3H88.68C79.99,627.75,72.87,621,72.3,612.45z M478.14,583.72l12.54-98.689
	c1.46-11.391-4.25-20.9-12.79-20.891l0,0c-8.54,0-16.489,9.5-17.71,20.88L449.4,583.63c-1.091,10.13,4.399,18.15,12.22,18.18h0.01
	C469.45,601.83,476.84,593.85,478.14,583.72z M413.54,583.53l8.59-98.53c1.01-11.37-5.06-20.87-13.57-20.86l0,0
	c-8.51,0-16.05,9.48-16.829,20.841l-6.841,98.46c-0.689,10.109,5.091,18.119,12.9,18.149l0,0
	C405.59,601.62,412.64,593.64,413.54,583.53z M349.13,583.34l4.68-98.38c0.561-11.35-5.859-20.82-14.34-20.82l0,0
	c-8.479,0-15.63,9.471-15.95,20.811l-2.939,98.3c-0.29,10.1,5.79,18.1,13.57,18.13l0,0C341.93,601.4,348.64,593.44,349.13,583.34z
	 M284.939,583.15l0.791-98.221c0.1-11.33-6.671-20.79-15.12-20.79l0,0c-8.45,0-15.2,9.45-15.07,20.771l0.93,98.149
	c0.11,10.08,6.49,18.07,14.24,18.101h0.01C278.47,601.18,284.84,593.23,284.939,583.15z M220.95,582.96l-3.08-98.07
	c-0.34-11.31-7.46-20.76-15.88-20.75l0,0c-8.42,0-14.78,9.431-14.21,20.74l4.79,97.99c0.51,10.07,7.18,18.04,14.91,18.07l0,0
	C215.21,600.97,221.25,593.03,220.95,582.96z M157.16,582.77l-6.92-97.909c-0.78-11.301-8.25-20.73-16.641-20.721l0,0
	c-8.39,0-14.359,9.42-13.34,20.7l8.61,97.84c0.899,10.051,7.86,18.021,15.569,18.051C152.14,600.75,157.85,592.83,157.16,582.77z"/>
<path fill-rule="evenodd" clip-rule="evenodd" fill="#45547D" d="M57.11,439.17l500.749,0.271
	c15.91,14.369-117.689,23.01-251.489,23.729C177.31,463.86,47.98,457.21,57.11,439.17z"/>
<path fill-rule="evenodd" clip-rule="evenodd" fill="#435376" d="M557.859,439.44L57.11,439.17
	c3.17,15.93,128.62,21.83,252.71,21.22C438.05,459.75,564.97,452.11,557.859,439.44z"/>
<path fill-rule="evenodd" clip-rule="evenodd" fill="#3E4D6F" d="M557.859,439.44L57.11,439.17
	c15.47,13.82,137.029,18.97,256.17,18.43C435.93,457.05,556.16,450.41,557.859,439.44z"/>
<path fill-rule="evenodd" clip-rule="evenodd" fill="#394666" d="M557.859,439.44L57.11,439.17
	c27.77,11.7,145.449,16.1,259.62,15.65C433.81,454.35,547.359,448.71,557.859,439.44z"/>
<path fill-rule="evenodd" clip-rule="evenodd" fill="#313C59" d="M557.859,439.44L57.11,439.17
	c40.069,9.59,153.859,13.24,263.069,12.87C431.689,451.66,538.55,447.02,557.859,439.44z"/>
<path fill-rule="evenodd" clip-rule="evenodd" fill="#27314A" d="M557.859,439.44L57.11,439.17
	c52.37,7.48,162.279,10.38,266.52,10.09C429.58,448.96,529.75,445.32,557.859,439.44z"/>
<path fill-rule="evenodd" clip-rule="evenodd" fill="#1F263D" d="M57.11,439.17l500.749,0.271
	C484.43,447.75,187.16,449.96,57.11,439.17z"/>
<path fill-rule="evenodd" clip-rule="evenodd" fill="#45547D" d="M52.68,448.87l19.7,160.979c1.03,8.37,6.36,14.62,11.91,13.94l0,0
	c5.55-0.68,9.22-8.03,8.19-16.41l-19.7-160.97c-1.021-8.37-6.36-14.62-11.91-13.94l0,0C55.32,433.15,51.65,440.5,52.68,448.87z"/>
<path fill-rule="evenodd" clip-rule="evenodd" fill="#526287" d="M83.33,623.04c4.83-0.59,7.91-7.86,6.89-16.24L70.7,447.32
	c-1.03-8.38-5.78-14.7-10.601-14.11h-0.01c-4.82,0.59-7.91,7.87-6.89,16.25l19.52,159.48C73.75,617.32,78.5,623.64,83.33,623.04
	L83.33,623.04z"/>
<path fill-rule="evenodd" clip-rule="evenodd" fill="#5F6F94" d="M82.37,622.3c4.11-0.5,6.61-7.71,5.59-16.09L68.62,448.22
	c-1.03-8.38-5.19-14.77-9.3-14.27l0,0c-4.11,0.51-6.62,7.71-5.59,16.09l19.34,157.99C74.09,616.41,78.26,622.8,82.37,622.3
	L82.37,622.3z"/>
<path fill-rule="evenodd" clip-rule="evenodd" fill="#6C7AA1" d="M81.41,621.55c3.39-0.41,5.31-7.55,4.279-15.92L66.54,449.12
	c-1.03-8.37-4.61-14.84-8-14.42l0,0c-3.39,0.41-5.31,7.55-4.29,15.92l19.16,156.51C74.43,615.5,78.02,621.97,81.41,621.55
	L81.41,621.55z"/>
<path fill-rule="evenodd" clip-rule="evenodd" fill="#7988AE" d="M80.45,620.81c2.67-0.329,4.01-7.39,2.979-15.77L64.46,450.02
	c-1.03-8.369-4.03-14.909-6.7-14.579l0,0c-2.67,0.329-4.01,7.39-2.979,15.76l18.97,155.02C74.77,614.6,77.78,621.13,80.45,620.81
	L80.45,620.81z"/>
<path fill-rule="evenodd" clip-rule="evenodd" fill="#8694BA" d="M79.49,620.06c1.949-0.239,2.699-7.229,1.68-15.609L62.38,450.93
	c-1.03-8.38-3.44-14.989-5.399-14.75l0,0c-1.95,0.24-2.7,7.23-1.681,15.61l18.79,153.52C75.12,613.69,77.53,620.3,79.49,620.06
	L79.49,620.06z"/>
<path fill-rule="evenodd" clip-rule="evenodd" fill="#91A1C7" d="M55.83,452.37l18.6,152.04c1.03,8.37,2.86,15.05,4.101,14.899l0,0
	c1.229-0.149,1.399-7.069,0.37-15.439L60.3,451.83c-1.03-8.38-2.86-15.061-4.09-14.91H56.2C54.97,437.07,54.8,443.99,55.83,452.37z"
	/>
<path fill-rule="evenodd" clip-rule="evenodd" fill="#45547D" d="M561.02,444.34l-29.39,168.28c-1.53,8.76-7.229,15-12.729,13.93
	l0,0c-5.5-1.069-8.721-9.05-7.19-17.8l29.399-168.28c1.53-8.76,7.23-15,12.73-13.93l0,0C559.34,427.61,562.55,435.58,561.02,444.34z
	"/>
<path fill-rule="evenodd" clip-rule="evenodd" fill="#526287" d="M519.9,625.83L519.9,625.83c4.789,0.93,9.91-5.42,11.439-14.18
	l29.12-166.73c1.53-8.76-1.11-16.62-5.89-17.55l0,0c-4.78-0.93-9.91,5.42-11.44,14.18l-29.12,166.72
	C512.48,617.03,515.12,624.89,519.9,625.83z"/>
<path fill-rule="evenodd" clip-rule="evenodd" fill="#5F6F94" d="M520.9,625.1L520.9,625.1c4.069,0.801,8.619-5.67,10.149-14.42
	L559.9,445.5c1.529-8.76-0.53-16.51-4.601-17.3l0,0c-4.069-0.8-8.62,5.67-10.149,14.42L516.3,607.8
	C514.77,616.56,516.83,624.31,520.9,625.1z"/>
<path fill-rule="evenodd" clip-rule="evenodd" fill="#6C7AA1" d="M521.91,624.38L521.91,624.38c3.35,0.66,7.32-5.92,8.85-14.68
	l28.58-163.62c1.53-8.76,0.05-16.4-3.31-17.05l0,0c-3.351-0.66-7.32,5.92-8.851,14.67l-28.59,163.63
	C517.061,616.08,518.55,623.72,521.91,624.38z"/>
<path fill-rule="evenodd" clip-rule="evenodd" fill="#7988AE" d="M522.91,623.66L522.91,623.66c2.64,0.51,6.029-6.17,7.56-14.93
	l28.311-162.07c1.53-8.76,0.63-16.29-2.021-16.8l0,0c-2.64-0.521-6.029,6.17-7.56,14.92L520.89,606.85
	C519.359,615.61,520.26,623.14,522.91,623.66z"/>
<path fill-rule="evenodd" clip-rule="evenodd" fill="#8694BA" d="M523.91,622.93L523.91,622.93c1.93,0.38,4.74-6.41,6.27-15.17
	l28.04-160.52c1.53-8.76,1.21-16.17-0.72-16.55l0,0c-1.939-0.381-4.75,6.409-6.28,15.17l-28.04,160.52
	C521.65,615.14,521.98,622.55,523.91,622.93z"/>
<path fill-rule="evenodd" clip-rule="evenodd" fill="#91A1C7" d="M557.67,447.82l-27.78,158.96c-1.53,8.76-3.76,15.67-4.979,15.43
	l0,0c-1.221-0.24-0.96-7.55,0.57-16.31l27.77-158.96c1.53-8.761,3.76-15.671,4.98-15.431l0,0
	C559.45,431.76,559.2,439.06,557.67,447.82z"/>
<linearGradient id="SVGID_3_" gradientUnits="userSpaceOnUse" x1="35.6519" y1="414.4912" x2="573.1328" y2="415.9912">
	<stop  offset="0" style="stop-color:#8390B4"/>
	<stop  offset="0.04" style="stop-color:#3E4B6C"/>
	<stop  offset="0.94" style="stop-color:#3E4B6C"/>
	<stop  offset="1" style="stop-color:#7A8BB3"/>
</linearGradient>
<path fill-rule="evenodd" clip-rule="evenodd" fill="url(#SVGID_3_)" d="M34.89,422.9v-31.74H574.16l-0.021,34.13
	c-0.29,8.24-12.76,14.14-33.319,14.13H69.67C47.06,439.43,34.59,432.36,34.89,422.9z"/>
<linearGradient id="SVGID_4_" gradientUnits="userSpaceOnUse" x1="304.7598" y1="397.8799" x2="301.0098" y2="288.3801">
	<stop  offset="0" style="stop-color:#D0D6ED"/>
	<stop  offset="1" style="stop-color:#8190B1"/>
</linearGradient>
<path fill-rule="evenodd" clip-rule="evenodd" fill="url(#SVGID_4_)" d="M35.03,384.96L71.1,310.3
	c3.44-6.899,21.261-12.12,40.021-12.13h375.45c18.76,0.01,37.229,5.23,41.52,12.13l45.3,74.66c5.95,9.55-8.17,17.98-32.05,17.97
	H69.3C45.42,402.94,30.26,394.51,35.03,384.96z M548.57,376.49l-38.65-61.63c-2.79-4.83-15.67-8.561-28.89-8.561h-363.8
	c-13.221,0-25.641,3.73-27.841,8.561l-29.72,61.63c-3.01,6.609,5.311,12.3,21.66,12.3h447.1
	C544.78,388.79,552.39,383.1,548.57,376.49z"/>
<path fill-rule="evenodd" clip-rule="evenodd" fill="#45547D" d="M92.65,626.67l420.01-0.27
	C446.57,602.16,197.17,601.27,92.65,626.67z"/>
<path fill-rule="evenodd" clip-rule="evenodd" fill="#435379" d="M512.66,626.4c-65.09-21.08-314.42-22.021-420.01,0.27
	L512.66,626.4z"/>
<path fill-rule="evenodd" clip-rule="evenodd" fill="#414D71" d="M512.66,626.4c-64.09-17.91-313.351-18.91-420.01,0.27
	L512.66,626.4z"/>
<path fill-rule="evenodd" clip-rule="evenodd" fill="#3C486A" d="M512.66,626.4c-63.09-14.74-312.271-15.811-420.01,0.27
	L512.66,626.4z"/>
<path fill-rule="evenodd" clip-rule="evenodd" fill="#34415D" d="M512.66,626.4c-62.09-11.58-311.2-12.7-420.01,0.27L512.66,626.4z"
	/>
<path fill-rule="evenodd" clip-rule="evenodd" fill="#2C3752" d="M512.66,626.4c-61.09-8.41-310.13-9.591-420.01,0.27L512.66,626.4z
	"/>
<path fill-rule="evenodd" clip-rule="evenodd" fill="#242E45" d="M92.65,626.67l420.01-0.27
	C452.57,621.16,203.6,619.92,92.65,626.67z"/>
<path fill-rule="evenodd" clip-rule="evenodd" fill="#3D4A6B" d="M545.22,403.87L63.9,404.14
	C48.61,418.51,177.02,427.15,305.63,427.87C429.68,428.56,553.99,421.91,545.22,403.87z"/>
<path fill-rule="evenodd" clip-rule="evenodd" fill="#465071" d="M63.9,404.14c-6.881,12.13,115.08,19.42,238.319,20.021
	c119.28,0.58,239.89-5.04,243-20.29L63.9,404.14z"/>
<path fill-rule="evenodd" clip-rule="evenodd" fill="#4B5879" d="M63.9,404.14c1.539,9.88,117.029,15.83,234.92,16.311
	c114.51,0.47,231.41-4.13,246.399-16.58L63.9,404.14z"/>
<path fill-rule="evenodd" clip-rule="evenodd" fill="#546283" d="M63.9,404.14c9.949,7.63,118.989,12.24,231.52,12.601
	c109.73,0.359,222.92-3.221,249.8-12.87L63.9,404.14z"/>
<path fill-rule="evenodd" clip-rule="evenodd" fill="#646F90" d="M63.9,404.14c18.359,5.391,120.949,8.641,228.119,8.9
	c104.961,0.24,214.44-2.32,253.2-9.17L63.9,404.14z"/>
<path fill-rule="evenodd" clip-rule="evenodd" fill="#747E9F" d="M63.9,404.14c26.779,3.141,122.899,5.051,224.71,5.19
	c100.189,0.13,205.96-1.41,256.609-5.46L63.9,404.14z"/>
<path fill-rule="evenodd" clip-rule="evenodd" fill="#808CAB" d="M545.22,403.87L63.9,404.14
	C133.92,405.93,419.49,406.38,545.22,403.87z"/>
<path fill-rule="evenodd" clip-rule="evenodd" fill="#45547D" d="M114,307.17l372.189,0.271
	c11.83,14.369-87.479,23.01-186.92,23.729C203.34,331.86,107.21,325.21,114,307.17z"/>
<path fill-rule="evenodd" clip-rule="evenodd" fill="#4B5881" d="M486.189,307.44L114,307.17c2.41,15.24,95.68,20.87,187.93,20.29
	C397.22,326.86,491.51,319.56,486.189,307.44z"/>
<path fill-rule="evenodd" clip-rule="evenodd" fill="#4D5D83" d="M486.189,307.44L114,307.17c11.6,12.45,102.03,17.05,190.59,16.58
	C395.73,323.27,485.01,317.32,486.189,307.44z"/>
<path fill-rule="evenodd" clip-rule="evenodd" fill="#546488" d="M486.189,307.44L114,307.17c20.8,9.65,108.37,13.23,193.26,12.87
	C394.24,319.68,478.51,315.07,486.189,307.44z"/>
<path fill-rule="evenodd" clip-rule="evenodd" fill="#606C90" d="M486.189,307.44L114,307.17c29.99,6.85,114.72,9.41,195.92,9.16
	C392.74,316.08,472,312.83,486.189,307.44z"/>
<path fill-rule="evenodd" clip-rule="evenodd" fill="#677399" d="M486.189,307.44L114,307.17c39.189,4.05,121.06,5.59,198.59,5.46
	C391.25,312.49,465.5,310.58,486.189,307.44z"/>
<path fill-rule="evenodd" clip-rule="evenodd" fill="#707D9E" d="M114,307.17l372.189,0.271C432.05,309.22,211.22,309.68,114,307.17
	z"/>
<linearGradient id="SVGID_5_" gradientUnits="userSpaceOnUse" x1="245.8037" y1="286.9849" x2="185.8041" y2="314.7353">
	<stop  offset="0" style="stop-color:#BDBDBD"/>
	<stop  offset="1" style="stop-color:#161616"/>
</linearGradient>
<polygon fill-rule="evenodd" clip-rule="evenodd" fill="url(#SVGID_5_)" points="175.91,388.92 182.66,388.92 269.66,273.42 
	281.66,197.67 189.41,320.67 187.91,328.92 271.91,216.42 261.41,272.67 "/>
<linearGradient id="SVGID_6_" gradientUnits="userSpaceOnUse" x1="274.5039" y1="239.8711" x2="289.5039" y2="242.1211">
	<stop  offset="0" style="stop-color:#464646"/>
	<stop  offset="1" style="stop-color:#333333"/>
</linearGradient>
<polygon fill-rule="evenodd" clip-rule="evenodd" fill="url(#SVGID_6_)" points="268.91,274.17 285.41,283.92 293.66,210.42 
	280.91,198.42 "/>
<linearGradient id="SVGID_7_" gradientUnits="userSpaceOnUse" x1="244.5737" y1="316.9033" x2="204.0738" y2="391.9033">
	<stop  offset="0" style="stop-color:#373636"/>
	<stop  offset="1" style="stop-color:#010101"/>
</linearGradient>
<polygon fill-rule="evenodd" clip-rule="evenodd" fill="url(#SVGID_7_)" points="182.66,388.92 208.91,388.92 285.41,283.92 
	268.91,274.17 "/>
<linearGradient id="SVGID_8_" gradientUnits="userSpaceOnUse" x1="239.3716" y1="272.4111" x2="201.1211" y2="332.4108">
	<stop  offset="0" style="stop-color:#010101"/>
	<stop  offset="1" style="stop-color:#383938"/>
</linearGradient>
<polygon fill-rule="evenodd" clip-rule="evenodd" fill="url(#SVGID_8_)" points="187.91,328.92 205.16,337.17 265.16,256.17 
	271.91,215.67 "/>
<linearGradient id="SVGID_9_" gradientUnits="userSpaceOnUse" x1="353.5166" y1="286.9849" x2="413.5166" y2="314.7348">
	<stop  offset="0" style="stop-color:#BDBDBD"/>
	<stop  offset="1" style="stop-color:#161616"/>
</linearGradient>
<polygon fill-rule="evenodd" clip-rule="evenodd" fill="url(#SVGID_9_)" points="423.41,388.92 416.66,388.92 329.66,273.42 
	317.66,197.67 409.91,320.67 411.41,328.92 327.41,216.42 337.91,272.67 "/>
<linearGradient id="SVGID_10_" gradientUnits="userSpaceOnUse" x1="324.8154" y1="239.8716" x2="309.8155" y2="242.1216">
	<stop  offset="0" style="stop-color:#464646"/>
	<stop  offset="1" style="stop-color:#333333"/>
</linearGradient>
<polygon fill-rule="evenodd" clip-rule="evenodd" fill="url(#SVGID_10_)" points="330.41,274.17 313.91,283.92 305.66,210.42 
	318.41,198.42 "/>
<linearGradient id="SVGID_11_" gradientUnits="userSpaceOnUse" x1="354.7471" y1="316.9033" x2="395.247" y2="391.9033">
	<stop  offset="0" style="stop-color:#373636"/>
	<stop  offset="1" style="stop-color:#010101"/>
</linearGradient>
<polygon fill-rule="evenodd" clip-rule="evenodd" fill="url(#SVGID_11_)" points="416.66,388.92 390.41,388.92 313.91,283.92 
	330.41,274.17 "/>
<linearGradient id="SVGID_12_" gradientUnits="userSpaceOnUse" x1="359.9502" y1="272.4116" x2="398.2002" y2="332.4116">
	<stop  offset="0" style="stop-color:#010101"/>
	<stop  offset="1" style="stop-color:#383938"/>
</linearGradient>
<polygon fill-rule="evenodd" clip-rule="evenodd" fill="url(#SVGID_12_)" points="411.41,328.92 394.16,337.17 334.16,256.17 
	327.41,215.67 "/>
</svg>
