<svg xmlns="http://www.w3.org/2000/svg" viewBox="0 0 249.55 75.61"><defs><style>.cls-1{fill:#f531d0;}.cls-2{fill:#28d5b8;}.cls-3{fill:#fff;}</style></defs><title>Asset 4</title><g id="Layer_2" data-name="Layer 2"><g id="Layer_1-2" data-name="Layer 1"><polygon class="cls-1" points="173.94 0 173.94 37.81 211.62 60.36 211.62 15 249.42 37.68 249.55 37.81 249.55 0 173.94 0"/><polygon class="cls-2" points="211.62 15 211.62 60.36 173.94 37.81 173.94 75.61 249.55 75.61 249.55 37.81 249.42 37.68 211.62 15"/><path class="cls-3" d="M148,39.11H123c.32,4.94,1.63,9.09,6,11.37,5.35,2.77,10.46,1.86,15.09-1.95a7.37,7.37,0,0,1,3,2.63,13.66,13.66,0,0,1-8.56,5.18c-10.54,2.2-19.22-3.8-20.65-14.42a23.27,23.27,0,0,1,1.72-13.29,15.63,15.63,0,0,1,16.39-9c7,1.09,11,5.54,12.06,13.27A19.44,19.44,0,0,1,148,39.11ZM123.44,34h18.88c.44-5.63-2.93-10-7.86-10.34C128.44,23.25,124,27.28,123.44,34Z"/><path class="cls-3" d="M39.42,39.15c0-10.38,4.76-17.35,12.62-19.22a15.34,15.34,0,0,1,17.31,7.58,21.72,21.72,0,0,1,1,19.36,15.57,15.57,0,0,1-16.52,9.79c-7.43-1-12.91-6.63-14.11-14.56C39.49,40.84,39.45,39.56,39.42,39.15Zm26.76-1.22a16.61,16.61,0,0,0-2.35-9c-4.16-6.5-12.62-6.48-16.38.26a17.21,17.21,0,0,0,.34,18.22c3.8,6.23,11.84,6.15,15.84,0A16.84,16.84,0,0,0,66.18,37.93Z"/><path class="cls-3" d="M85.7,56A12.7,12.7,0,0,1,81,56V20.44c1.55-.73,3.16-.41,4.73-.23.9,1.71,0,3.6.89,5.48,2.49-2.63,5-4.9,8.47-5.79,5.56-1.43,10.31,1,12.22,6.38a13.83,13.83,0,0,1,.94,4.31c.08,8.36,0,16.71,0,25.16-1.6.73-3.21.44-4.91.2-.57-2.71-.24-5.36-.28-8-.09-5.42,0-10.83-.17-16.24-.1-2.95-1-5.77-4-7s-5.81-.18-8.27,1.66a10.86,10.86,0,0,0-4.47,9.2q0,8.55,0,17.12A6.05,6.05,0,0,1,85.7,56Z"/><path class="cls-3" d="M19.19,11.81V56H13.84V12H.63C-.31,10.32,0,8.9.26,7.26H33.2c.6,1.47.32,2.89.14,4.55Z"/><path class="cls-3" d="M161,56.73a4.45,4.45,0,1,1,4.52-4.17A4.61,4.61,0,0,1,161,56.73Z"/><path class="cls-3" d="M245.38,25.3a9.49,9.49,0,0,1-3,3.56c-3.17-3.59-7.07-5.56-11.93-5.15a12.11,12.11,0,0,0-3.42.76c-3.43,1.37-3.91,4.55-1.08,6.91,2.09,1.74,4.67,2.5,7.2,3.28a60,60,0,0,1,7.44,2.79c8.29,3.78,6.48,13.32.82,16.9-6.8,4.29-19.07,2.69-24.56-3.39a17.82,17.82,0,0,1,3.05-4.89A14.06,14.06,0,0,0,233.3,52a13.18,13.18,0,0,0,4.26-1,4.9,4.9,0,0,0,3.19-4.25,4.7,4.7,0,0,0-2.67-4.56,35.62,35.62,0,0,0-7.65-3.05c-3.29-1-6.49-2.32-9.08-4.72-4.35-4-3.54-10.26,1.65-13.08C229.76,17.58,240,19.38,245.38,25.3Z"/><path class="cls-3" d="M196,24.79H183.53a6.38,6.38,0,0,1,0-4.61h17.93c.86.93.51,2.06.51,3.09q0,14.9,0,29.79a35.87,35.87,0,0,1-.32,5.29c-.81,5.31-3.56,9.2-8.85,10.71a15,15,0,0,1-15.54-4,14.91,14.91,0,0,1,3-4.21c2.35,2.24,4.68,4.26,8.2,4.08s6.21-1.94,7.23-5.37a13,13,0,0,0,.61-3.48c.05-10,0-20,0-30.08A6.37,6.37,0,0,0,196,24.79Z"/><path class="cls-3" d="M202.63,8.84A4.07,4.07,0,0,1,198.91,13a4.17,4.17,0,1,1,3.72-4.17Z"/></g></g></svg>