<?xml version="1.0" encoding="UTF-8" standalone="no"?>
<svg xmlns="http://www.w3.org/2000/svg" height="550px" width="498px" version="1.1" viewBox="0 0 498 550">
 <defs>
  <linearGradient id="a" x2="50%" x1="50%" y2="100%">
   <stop stop-color="#34AADC" offset="0"/>
   <stop stop-color="#007AFF" offset="1"/>
  </linearGradient>
 </defs>
 <g fill-rule="evenodd" fill="#fff">
  <path fill="#FF9D00" d="m471.86 305.93c34.19 26.66 34.19 70.52 0 97.39l-160.84 126.42c-34.19 26.66-89.85 26.66-124.04 0l-160.84-126.2c-34.186-26.66-34.186-70.52-0.001-97.4l160.84-126.41c34.19-26.66 89.85-26.66 124.04 0l160.84 126.2z"/>
  <path fill="#fc0" d="m187.37 450.83l-161.56-126.97c-16.286-12.76-25.31-29.85-25.31-48.02s9.0244-35.26 25.312-48.02l161.56-127.19c16.29-12.76 38.3-19.898 61.63-19.898s45.12 7.138 61.63 19.898l161.56 126.97c16.29 12.77 25.31 29.85 25.31 48.02s-9.02 35.26-25.31 48.02l-161.56 126.98c-16.51 12.97-38.3 20.11-61.63 20.11s-45.12-7.14-61.63-19.9z"/>
  <path fill="url(#a)" d="m187.37 370.83l-161.56-126.97c-16.286-12.76-25.31-29.85-25.31-48.02s9.0244-35.26 25.312-48.02l161.56-127.19c16.29-12.76 38.3-19.898 61.63-19.898 23.33-0.00006 45.12 7.138 61.63 19.9l161.56 126.97c16.29 12.77 25.31 29.85 25.31 48.02s-9.02 35.26-25.31 48.02l-161.56 126.98c-16.51 12.97-38.3 20.11-61.63 20.11s-45.12-7.14-61.63-19.9z"/>
  <path d="m249.56 317.52c82.55 0 149.48-54.7 149.48-122.18 0-67.49-66.93-122.19-149.48-122.19-82.56-0.002-149.48 54.7-149.48 122.19 0 67.48 66.92 122.18 149.48 122.18zm0 12.58c-91.06 0-164.87-60.34-164.87-134.76 0-74.43 73.81-134.77 164.87-134.77 91.05 0 164.87 60.34 164.87 134.77 0 74.42-73.82 134.76-164.87 134.76z"/>
  <path fill="#8CC8F6" d="m260.58 247.2c8.26-1.08 16.31-3.39 23.69-6.91l47.05 19.34-24.65-36.92c12.97-16.71 12.97-37.86 0-54.56l24.65-36.92-44.35 18.22-1.27 19.5c18.13 15.21 17.67 39.22-1.17 53.9-4.81 3.84-10.33 6.54-16.12 8.46l-7.83 15.89zm-22-103.58c-13.65 1.78-23.88 6.95-23.88 6.95l-47.01-19.34 24.65 36.92c-12.97 16.7-12.97 37.85 0 54.56l-24.65 36.92 45.56-18.73 0.97-18.26c-19.06-15.16-18.91-39.41 0.31-54.64 4.47-4 14.58-8.24 16.09-8.46l7.96-15.92z"/>
  <path d="m226.94 191.3l-6.26 111 50.71-102.94 7.26-110.79-51.71 102.73zm-0.65 89.67l40.61-82.41-35.59-6.49-5.02 88.9z"/>
 </g>
</svg>
