<?xml version="1.0" encoding="utf-8"?>
<!-- Generator: Adobe Illustrator 16.0.0, SVG Export Plug-In . SVG Version: 6.00 Build 0)  -->
<!DOCTYPE svg PUBLIC "-//W3C//DTD SVG 1.1//EN" "http://www.w3.org/Graphics/SVG/1.1/DTD/svg11.dtd">
<svg version="1.1" xmlns="http://www.w3.org/2000/svg" xmlns:xlink="http://www.w3.org/1999/xlink" x="0px" y="0px"
	 width="98.301px" height="36.152px" viewBox="0 -0.499 98.301 36.152" enable-background="new 0 -0.499 98.301 36.152"
	 xml:space="preserve">
<g id="Layer_2">
</g>
<g id="Layer_1">
	<g>
		<g>
			<path fill="none" stroke="#000000" d="M58.774,9.825c0.018,0.114,0.021,0.217,0.016,0.305c-0.027,0.365-0.271,0.593-0.733,0.685
				c-0.026,0.012-0.466,0.047-1.315,0.11c-2.248,0.148-4.557,0.236-6.922,0.261c-1.151,2.051-2.627,5.404-4.428,10.061
				c-1.657,4.25-2.908,7.81-3.754,10.68c-0.284,0.927-0.633,1.375-1.048,1.344c-0.264-0.02-0.788-0.197-1.571-0.535
				c-0.283-0.108-0.427-0.291-0.434-0.544c0.006,0.253,0.047-0.129,0.124-1.146c0.138-1.849,0.558-3.511,1.263-4.987
				c0.269-0.549,0.541-0.813,0.818-0.792c0.075,0.005,0.221,0.045,0.437,0.118c0.215,0.073,0.392,0.121,0.53,0.144
				c0.435-1.256,1.428-3.729,2.98-7.419c1.752-4.167,2.706-6.452,2.863-6.858c-1.947,0.007-3.906,0.164-5.875,0.472
				c-2.189,0.368-3.639,0.822-4.349,1.364c-0.805,0.623-1.232,1.267-1.282,1.933c-0.054,0.717,0.278,1.867,0.994,3.449
				c0.076,0.17,0.108,0.324,0.098,0.462c-0.023,0.314-0.18,0.46-0.468,0.439c-0.202-0.016-0.375-0.148-0.521-0.398
				c-0.887-1.495-1.452-2.649-1.695-3.464c-0.172-0.569-0.264-1.378-0.273-2.429c-0.024-1.543,1.323-2.581,4.042-3.111
				c3.54-0.684,7.088-1.051,10.644-1.102c0.463-0.787,0.79-1.175,0.978-1.16c0.289,0.021,0.756,0.373,1.399,1.053
				c0.328,0.024,1.349-0.026,3.064-0.151c0.305-0.026,0.629-0.225,0.973-0.591c0.305-0.344,0.979-0.502,2.026-0.475
				c0.567,0.018,0.94,0.26,1.121,0.729C58.506,8.333,58.606,8.853,58.774,9.825z"/>
			<path fill="none" stroke="#000000" d="M59.362,17.802c0,1.651-0.221,3.227-0.66,4.727c-0.141,0.454-0.328,0.682-0.568,0.682
				c-0.176,0-0.566-0.252-1.172-0.756c-0.303-0.252-0.379-0.611-0.228-1.078c0.353-1.146,0.529-2.067,0.529-2.76
				c0-0.239-0.052-0.359-0.151-0.359c-0.15,0-0.396,0.227-0.736,0.681c-2.623,3.416-4.582,7.249-5.881,11.496
				c-0.416,1.35-0.77,2.023-1.06,2.023c-0.113,0-0.611-0.222-1.493-0.662c-0.429-0.214-0.574-0.63-0.435-1.248
				c0.996-4.361,2.067-8.042,3.214-11.042c-0.934,0.982-1.525,1.658-1.777,2.022c-0.102,0.151-0.24,0.228-0.416,0.228
				c-0.214,0-0.321-0.095-0.321-0.284c0-0.113,0.05-0.239,0.151-0.378c0.617-0.744,1.441-1.878,2.477-3.404
				c0.314-0.554,0.631-0.832,0.945-0.832c0.227,0,0.688,0.178,1.381,0.53c0.391,0.202,0.453,0.473,0.188,0.813
				c-0.277,0.365-0.802,1.657-1.569,3.876c-0.73,2.155-1.234,3.845-1.513,5.066c1.714-3.818,3.662-7.19,5.843-10.116
				c0.416-0.555,0.75-0.832,1.002-0.832c0.227,0,0.536,0.151,0.928,0.454c0.528,0.063,0.862,0.146,1.002,0.246
				C59.254,17.045,59.362,17.348,59.362,17.802z"/>
			<path fill="none" stroke="#000000" d="M71.709,20.052c-0.025,1.122-0.297,2.609-0.813,4.462
				c-0.819,2.924-1.979,5.193-3.479,6.807c-0.793,0.857-1.676,1.286-2.646,1.286c-0.378,0-0.863-0.082-1.455-0.246
				c-1.186-0.075-2.148-0.446-2.895-1.115c-0.807-0.731-1.185-1.67-1.133-2.817c0.049-1.336,0.51-3.202,1.379-5.597
				c0.959-2.609,1.955-4.487,2.987-5.636c0.492-0.554,0.896-0.831,1.21-0.831c0.43,0,1.122,0.44,2.08,1.322
				c0.266-0.126,0.807-0.358,1.626-0.7c0.416-0.138,0.731-0.208,0.945-0.208c0.491,0,1.04,0.461,1.646,1.381
				C71.551,18.728,71.734,19.358,71.709,20.052z M69.536,20.6c0.088-0.845,0.131-1.38,0.131-1.606c0-0.529-0.164-0.794-0.49-0.794
				c-0.127,0-0.29,0.024-0.492,0.075l-2.932,1.191c-0.34,0.139-0.535,0.208-0.586,0.208c-0.101,0-0.201-0.12-0.303-0.359
				c-0.73,0.896-1.41,2.188-2.042,3.876c-0.491,1.324-0.831,2.509-1.021,3.556c-0.141,0.706-0.209,1.349-0.209,1.929
				c0,1.941,0.6,2.887,1.797,2.836c0.479-0.012,0.996-0.201,1.551-0.567c1.059-0.719,2.048-2.155,2.969-4.311
				C68.792,24.603,69.333,22.592,69.536,20.6z"/>
			<path fill="none" stroke="#000000" d="M88.141,2.675c0.164,0.126,0.246,0.259,0.246,0.397c0,0.238-0.146,0.358-0.436,0.358
				c-0.127,0-0.259-0.038-0.396-0.113c-0.58-0.29-1.016-0.435-1.305-0.435c-0.795,0-1.664,0.769-2.609,2.307
				c-3.43,5.584-5.868,12.802-7.316,21.65c-0.039,0.239-0.103,0.561-0.189,0.964c0.289-0.303,0.719-0.794,1.285-1.475
				c0.328-0.392,0.567-0.586,0.72-0.586c0.327,0,0.353,0.194,0.075,0.586c-1.211,1.727-2.012,3.536-2.401,5.427
				c-0.14,0.466-0.315,0.7-0.528,0.7c-0.103,0-0.234-0.058-0.397-0.17c-0.644-0.429-1.009-0.682-1.097-0.756
				c-0.252-0.253-0.379-0.58-0.379-0.983c0-0.202,0.031-0.448,0.096-0.738c1.462-8.028,3.347-14.868,5.652-20.515
				c1.739-4.261,3.297-7.021,4.672-8.282c0.377-0.353,0.756-0.522,1.133-0.511c0.342,0.013,0.781,0.227,1.324,0.643
				C86.905,1.648,87.522,2.158,88.141,2.675z"/>
			<path fill="none" stroke="#000000" d="M95.497,2.675c0.164,0.126,0.246,0.259,0.246,0.397c0,0.238-0.146,0.358-0.437,0.358
				c-0.126,0-0.259-0.038-0.396-0.113c-0.58-0.29-1.016-0.435-1.306-0.435c-0.794,0-1.664,0.769-2.608,2.307
				c-3.43,5.584-5.869,12.802-7.317,21.65c-0.038,0.239-0.103,0.561-0.188,0.964c0.289-0.303,0.719-0.794,1.285-1.475
				c0.327-0.392,0.566-0.586,0.719-0.586c0.327,0,0.354,0.194,0.075,0.586c-1.21,1.727-2.011,3.536-2.401,5.427
				c-0.139,0.466-0.314,0.7-0.528,0.7c-0.103,0-0.233-0.058-0.397-0.17c-0.643-0.429-1.009-0.682-1.097-0.756
				c-0.252-0.253-0.378-0.58-0.378-0.983c0-0.202,0.031-0.448,0.095-0.738c1.462-8.028,3.347-14.868,5.653-20.515
				c1.738-4.261,3.296-7.021,4.671-8.282c0.378-0.353,0.756-0.522,1.134-0.511c0.342,0.013,0.781,0.227,1.324,0.643
				C94.261,1.648,94.877,2.158,95.497,2.675z"/>
			<path fill="none" stroke="#000000" d="M97.613,26.632c-3.063,3.92-5.219,5.88-6.467,5.88c-0.593,0-1.343-0.41-2.25-1.229
				c-0.944-0.441-1.418-1.034-1.418-1.777c0-0.139,0.013-0.284,0.037-0.436c0.228-1.727,0.688-3.637,1.381-5.729
				c-0.467-0.239-0.699-0.466-0.699-0.681c0-0.178,0.132-0.266,0.396-0.266c0.201,0,0.41,0.058,0.625,0.17
				c1.121-2.521,2.13-4.311,3.025-5.37c0.579-0.705,1.103-1.059,1.568-1.059c0.214,0,0.744,0.183,1.588,0.548
				c-0.063-0.378,0.045-0.599,0.322-0.662c0.012,0,0.309,0,0.889,0c0.541,0,0.813,0.095,0.813,0.283
				c0,0.038-0.019,0.146-0.057,0.322c-0.037,0.177-0.057,0.34-0.057,0.492c0,0.454,0.006,1.015,0.02,1.683
				c0.012,0.668,0.02,1.116,0.02,1.342c0,1.563-0.43,2.654-1.286,3.271c-0.781,0.566-1.664,0.851-2.647,0.851
				c-0.517,0-1.373-0.139-2.57-0.416c-0.215,0.392-0.453,1.153-0.719,2.288c-0.354,1.438-0.518,2.71-0.492,3.819
				c0.014,0.656,0.222,0.982,0.625,0.982c0.15,0,0.347-0.038,0.586-0.113c1.462-0.518,3.498-2.093,6.107-4.728
				c0.164-0.164,0.327-0.246,0.491-0.246c0.239,0,0.358,0.113,0.358,0.34C97.801,26.335,97.739,26.48,97.613,26.632z M95.4,18.274
				c0-0.491-0.106-0.737-0.321-0.737c-0.139,0-0.34,0.101-0.604,0.303c-1.234,0.996-2.318,2.742-3.253,5.238
				c0.253,0.038,0.692,0.074,1.323,0.112c1.021,0.038,1.783-0.194,2.289-0.699c0.377-0.379,0.586-1.003,0.623-1.872
				C95.42,21.262,95.4,20.48,95.4,18.274z"/>
		</g>
		<g>
			<path fill="#FFFFFF" stroke="#FFFFFF" stroke-width="3" d="M58.774,9.825c0.018,0.114,0.021,0.217,0.016,0.305
				c-0.027,0.365-0.271,0.593-0.733,0.685c-0.026,0.012-0.466,0.047-1.315,0.11c-2.248,0.148-4.557,0.236-6.922,0.261
				c-1.151,2.051-2.627,5.404-4.428,10.061c-1.657,4.25-2.908,7.81-3.754,10.68c-0.284,0.927-0.633,1.375-1.048,1.344
				c-0.264-0.02-0.788-0.197-1.571-0.535c-0.283-0.108-0.427-0.291-0.434-0.544c0.006,0.253,0.047-0.129,0.124-1.146
				c0.138-1.849,0.558-3.511,1.263-4.987c0.269-0.549,0.541-0.813,0.818-0.792c0.075,0.005,0.221,0.045,0.437,0.118
				c0.215,0.073,0.392,0.121,0.53,0.144c0.435-1.256,1.428-3.729,2.98-7.419c1.752-4.167,2.706-6.452,2.863-6.858
				c-1.947,0.007-3.906,0.164-5.875,0.472c-2.189,0.368-3.639,0.822-4.349,1.364c-0.805,0.623-1.232,1.267-1.282,1.933
				c-0.054,0.717,0.278,1.867,0.994,3.449c0.076,0.17,0.108,0.324,0.098,0.462c-0.023,0.314-0.18,0.46-0.468,0.439
				c-0.202-0.016-0.375-0.148-0.521-0.398c-0.887-1.495-1.452-2.649-1.695-3.464c-0.172-0.569-0.264-1.378-0.273-2.429
				c-0.024-1.543,1.323-2.581,4.042-3.111c3.54-0.684,7.088-1.051,10.644-1.102c0.463-0.787,0.79-1.175,0.978-1.16
				c0.289,0.021,0.756,0.373,1.399,1.053c0.328,0.024,1.349-0.026,3.064-0.151c0.305-0.026,0.629-0.225,0.973-0.591
				c0.305-0.344,0.979-0.502,2.026-0.475c0.567,0.018,0.94,0.26,1.121,0.729C58.506,8.333,58.606,8.853,58.774,9.825z"/>
			<path fill="#FFFFFF" stroke="#FFFFFF" d="M59.362,17.802c0,1.651-0.221,3.227-0.66,4.727c-0.141,0.454-0.328,0.682-0.568,0.682
				c-0.176,0-0.566-0.252-1.172-0.756c-0.303-0.252-0.379-0.611-0.228-1.078c0.353-1.146,0.529-2.067,0.529-2.76
				c0-0.239-0.052-0.359-0.151-0.359c-0.15,0-0.396,0.227-0.736,0.681c-2.623,3.416-4.582,7.249-5.881,11.496
				c-0.416,1.35-0.77,2.023-1.06,2.023c-0.113,0-0.611-0.222-1.493-0.662c-0.429-0.214-0.574-0.63-0.435-1.248
				c0.996-4.361,2.067-8.042,3.214-11.042c-0.934,0.982-1.525,1.658-1.777,2.022c-0.102,0.151-0.24,0.228-0.416,0.228
				c-0.214,0-0.321-0.095-0.321-0.284c0-0.113,0.05-0.239,0.151-0.378c0.617-0.744,1.441-1.878,2.477-3.404
				c0.314-0.554,0.631-0.832,0.945-0.832c0.227,0,0.688,0.178,1.381,0.53c0.391,0.202,0.453,0.473,0.188,0.813
				c-0.277,0.365-0.802,1.657-1.569,3.876c-0.73,2.155-1.234,3.845-1.513,5.066c1.714-3.818,3.662-7.19,5.843-10.116
				c0.416-0.555,0.75-0.832,1.002-0.832c0.227,0,0.536,0.151,0.928,0.454c0.528,0.063,0.862,0.146,1.002,0.246
				C59.254,17.045,59.362,17.348,59.362,17.802z"/>
			<path fill="#FFFFFF" stroke="#FFFFFF" stroke-width="2" d="M71.709,20.052c-0.025,1.122-0.297,2.609-0.813,4.462
				c-0.819,2.924-1.979,5.193-3.479,6.807c-0.793,0.857-1.676,1.286-2.646,1.286c-0.378,0-0.863-0.082-1.455-0.246
				c-1.186-0.075-2.148-0.446-2.895-1.115c-0.807-0.731-1.185-1.67-1.133-2.817c0.049-1.336,0.51-3.202,1.379-5.597
				c0.959-2.609,1.955-4.487,2.987-5.636c0.492-0.554,0.896-0.831,1.21-0.831c0.43,0,1.122,0.44,2.08,1.322
				c0.266-0.126,0.807-0.358,1.626-0.7c0.416-0.138,0.731-0.208,0.945-0.208c0.491,0,1.04,0.461,1.646,1.381
				C71.551,18.728,71.734,19.358,71.709,20.052z M69.536,20.6c0.088-0.845,0.131-1.38,0.131-1.606c0-0.529-0.164-0.794-0.49-0.794
				c-0.127,0-0.29,0.024-0.492,0.075l-2.932,1.191c-0.34,0.139-0.535,0.208-0.586,0.208c-0.101,0-0.201-0.12-0.303-0.359
				c-0.73,0.896-1.41,2.188-2.042,3.876c-0.491,1.324-0.831,2.509-1.021,3.556c-0.141,0.706-0.209,1.349-0.209,1.929
				c0,1.941,0.6,2.887,1.797,2.836c0.479-0.012,0.996-0.201,1.551-0.567c1.059-0.719,2.048-2.155,2.969-4.311
				C68.792,24.603,69.333,22.592,69.536,20.6z"/>
			<path fill="#FFFFFF" stroke="#FFFFFF" stroke-width="2" d="M87.141,2.675c0.164,0.126,0.246,0.259,0.246,0.397
				c0,0.238-0.146,0.358-0.436,0.358c-0.127,0-0.259-0.038-0.396-0.113c-0.58-0.29-1.016-0.435-1.305-0.435
				c-0.795,0-1.664,0.769-2.609,2.307c-3.43,5.584-5.868,12.802-7.316,21.65c-0.039,0.239-0.103,0.561-0.189,0.964
				c0.289-0.303,0.719-0.794,1.285-1.475c0.328-0.392,0.567-0.586,0.72-0.586c0.327,0,0.353,0.194,0.075,0.586
				c-1.211,1.727-2.012,3.536-2.401,5.427c-0.14,0.466-0.315,0.7-0.528,0.7c-0.103,0-0.234-0.058-0.397-0.17
				c-0.644-0.429-1.009-0.682-1.097-0.756c-0.252-0.253-0.379-0.58-0.379-0.983c0-0.202,0.031-0.448,0.096-0.738
				c1.462-8.028,3.347-14.868,5.652-20.515c1.739-4.261,3.297-7.021,4.672-8.282c0.377-0.353,0.756-0.522,1.133-0.511
				c0.342,0.013,0.781,0.227,1.324,0.643C85.905,1.648,86.522,2.158,87.141,2.675z"/>
			<path fill="#FFFFFF" stroke="#FFFFFF" stroke-width="2" d="M94.497,2.675c0.164,0.126,0.246,0.259,0.246,0.397
				c0,0.238-0.146,0.358-0.437,0.358c-0.126,0-0.259-0.038-0.396-0.113c-0.58-0.29-1.016-0.435-1.306-0.435
				c-0.794,0-1.664,0.769-2.608,2.307c-3.43,5.584-5.869,12.802-7.317,21.65c-0.038,0.239-0.103,0.561-0.188,0.964
				c0.289-0.303,0.719-0.794,1.285-1.475c0.327-0.392,0.566-0.586,0.719-0.586c0.327,0,0.354,0.194,0.075,0.586
				c-1.21,1.727-2.011,3.536-2.401,5.427c-0.139,0.466-0.314,0.7-0.528,0.7c-0.103,0-0.233-0.058-0.397-0.17
				c-0.643-0.429-1.009-0.682-1.097-0.756c-0.252-0.253-0.378-0.58-0.378-0.983c0-0.202,0.031-0.448,0.095-0.738
				c1.462-8.028,3.347-14.868,5.653-20.515c1.738-4.261,3.296-7.021,4.671-8.282c0.378-0.353,0.756-0.522,1.134-0.511
				c0.342,0.013,0.781,0.227,1.324,0.643C93.261,1.648,93.877,2.158,94.497,2.675z"/>
			<path fill="#FFFFFF" stroke="#FFFFFF" stroke-width="2" d="M96.613,26.632c-3.063,3.92-5.219,5.88-6.467,5.88
				c-0.593,0-1.343-0.41-2.25-1.229c-0.944-0.441-1.418-1.034-1.418-1.777c0-0.139,0.013-0.284,0.037-0.436
				c0.228-1.727,0.688-3.637,1.381-5.729c-0.467-0.239-0.699-0.466-0.699-0.681c0-0.178,0.132-0.266,0.396-0.266
				c0.201,0,0.41,0.058,0.625,0.17c1.121-2.521,2.13-4.311,3.025-5.37c0.579-0.705,1.103-1.059,1.568-1.059
				c0.214,0,0.744,0.183,1.588,0.548c-0.063-0.378,0.045-0.599,0.322-0.662c0.012,0,0.309,0,0.889,0
				c0.541,0,0.813,0.095,0.813,0.283c0,0.038-0.019,0.146-0.057,0.322c-0.037,0.177-0.057,0.34-0.057,0.492
				c0,0.454,0.006,1.015,0.02,1.683c0.012,0.668,0.02,1.116,0.02,1.342c0,1.563-0.43,2.654-1.286,3.271
				c-0.781,0.566-1.664,0.851-2.647,0.851c-0.517,0-1.373-0.139-2.57-0.416c-0.215,0.392-0.453,1.153-0.719,2.288
				c-0.354,1.438-0.518,2.71-0.492,3.819c0.014,0.656,0.222,0.982,0.625,0.982c0.15,0,0.347-0.038,0.586-0.113
				c1.462-0.518,3.498-2.093,6.107-4.728c0.164-0.164,0.327-0.246,0.491-0.246c0.239,0,0.358,0.113,0.358,0.34
				C96.801,26.335,96.739,26.48,96.613,26.632z M94.4,18.274c0-0.491-0.106-0.737-0.321-0.737c-0.139,0-0.34,0.101-0.604,0.303
				c-1.234,0.996-2.318,2.742-3.253,5.238c0.253,0.038,0.692,0.074,1.323,0.112c1.021,0.038,1.783-0.194,2.289-0.699
				c0.377-0.379,0.586-1.003,0.623-1.872C94.42,21.262,94.4,20.48,94.4,18.274z"/>
		</g>
		<g>
			<path fill="none" stroke="#FFFFFF" d="M58.774,9.825c0.018,0.114,0.021,0.217,0.016,0.305c-0.027,0.365-0.271,0.593-0.733,0.685
				c-0.026,0.012-0.466,0.047-1.315,0.11c-2.248,0.148-4.557,0.236-6.922,0.261c-1.151,2.051-2.627,5.404-4.428,10.061
				c-1.657,4.25-2.908,7.81-3.754,10.68c-0.284,0.927-0.633,1.375-1.048,1.344c-0.264-0.02-0.788-0.197-1.571-0.535
				c-0.283-0.108-0.427-0.291-0.434-0.544c0.006,0.253,0.047-0.129,0.124-1.146c0.138-1.849,0.558-3.511,1.263-4.987
				c0.269-0.549,0.541-0.813,0.818-0.792c0.075,0.005,0.221,0.045,0.437,0.118c0.215,0.073,0.392,0.121,0.53,0.144
				c0.435-1.256,1.428-3.729,2.98-7.419c1.752-4.167,2.706-6.452,2.863-6.858c-1.947,0.007-3.906,0.164-5.875,0.472
				c-2.189,0.368-3.639,0.822-4.349,1.364c-0.805,0.623-1.232,1.267-1.282,1.933c-0.054,0.717,0.278,1.867,0.994,3.449
				c0.076,0.17,0.108,0.324,0.098,0.462c-0.023,0.314-0.18,0.46-0.468,0.439c-0.202-0.016-0.375-0.148-0.521-0.398
				c-0.887-1.495-1.452-2.649-1.695-3.464c-0.172-0.569-0.264-1.378-0.273-2.429c-0.024-1.543,1.323-2.581,4.042-3.111
				c3.54-0.684,7.088-1.051,10.644-1.102c0.463-0.787,0.79-1.175,0.978-1.16c0.289,0.021,0.756,0.373,1.399,1.053
				c0.328,0.024,1.349-0.026,3.064-0.151c0.305-0.026,0.629-0.225,0.973-0.591c0.305-0.344,0.979-0.502,2.026-0.475
				c0.567,0.018,0.94,0.26,1.121,0.729C58.506,8.333,58.606,8.853,58.774,9.825z"/>
			<path fill="none" stroke="#FFFFFF" d="M59.362,17.802c0,1.651-0.221,3.227-0.66,4.727c-0.141,0.454-0.328,0.682-0.568,0.682
				c-0.176,0-0.566-0.252-1.172-0.756c-0.303-0.252-0.379-0.611-0.228-1.078c0.353-1.146,0.529-2.067,0.529-2.76
				c0-0.239-0.052-0.359-0.151-0.359c-0.15,0-0.396,0.227-0.736,0.681c-2.623,3.416-4.582,7.249-5.881,11.496
				c-0.416,1.35-0.77,2.023-1.06,2.023c-0.113,0-0.611-0.222-1.493-0.662c-0.429-0.214-0.574-0.63-0.435-1.248
				c0.996-4.361,2.067-8.042,3.214-11.042c-0.934,0.982-1.525,1.658-1.777,2.022c-0.102,0.151-0.24,0.228-0.416,0.228
				c-0.214,0-0.321-0.095-0.321-0.284c0-0.113,0.05-0.239,0.151-0.378c0.617-0.744,1.441-1.878,2.477-3.404
				c0.314-0.554,0.631-0.832,0.945-0.832c0.227,0,0.688,0.178,1.381,0.53c0.391,0.202,0.453,0.473,0.188,0.813
				c-0.277,0.365-0.802,1.657-1.569,3.876c-0.73,2.155-1.234,3.845-1.513,5.066c1.714-3.818,3.662-7.19,5.843-10.116
				c0.416-0.555,0.75-0.832,1.002-0.832c0.227,0,0.536,0.151,0.928,0.454c0.528,0.063,0.862,0.146,1.002,0.246
				C59.254,17.045,59.362,17.348,59.362,17.802z"/>
			<path fill="none" stroke="#FFFFFF" d="M71.709,20.052c-0.025,1.122-0.297,2.609-0.813,4.462
				c-0.819,2.924-1.979,5.193-3.479,6.807c-0.793,0.857-1.676,1.286-2.646,1.286c-0.378,0-0.863-0.082-1.455-0.246
				c-1.186-0.075-2.148-0.446-2.895-1.115c-0.807-0.731-1.185-1.67-1.133-2.817c0.049-1.336,0.51-3.202,1.379-5.597
				c0.959-2.609,1.955-4.487,2.987-5.636c0.492-0.554,0.896-0.831,1.21-0.831c0.43,0,1.122,0.44,2.08,1.322
				c0.266-0.126,0.807-0.358,1.626-0.7c0.416-0.138,0.731-0.208,0.945-0.208c0.491,0,1.04,0.461,1.646,1.381
				C71.551,18.728,71.734,19.358,71.709,20.052z M69.536,20.6c0.088-0.845,0.131-1.38,0.131-1.606c0-0.529-0.164-0.794-0.49-0.794
				c-0.127,0-0.29,0.024-0.492,0.075l-2.932,1.191c-0.34,0.139-0.535,0.208-0.586,0.208c-0.101,0-0.201-0.12-0.303-0.359
				c-0.73,0.896-1.41,2.188-2.042,3.876c-0.491,1.324-0.831,2.509-1.021,3.556c-0.141,0.706-0.209,1.349-0.209,1.929
				c0,1.941,0.6,2.887,1.797,2.836c0.479-0.012,0.996-0.201,1.551-0.567c1.059-0.719,2.048-2.155,2.969-4.311
				C68.792,24.603,69.333,22.592,69.536,20.6z"/>
			<path fill="none" stroke="#FFFFFF" d="M88.141,2.675c0.164,0.126,0.246,0.259,0.246,0.397c0,0.238-0.146,0.358-0.436,0.358
				c-0.127,0-0.259-0.038-0.396-0.113c-0.58-0.29-1.016-0.435-1.305-0.435c-0.795,0-1.664,0.769-2.609,2.307
				c-3.43,5.584-5.868,12.802-7.316,21.65c-0.039,0.239-0.103,0.561-0.189,0.964c0.289-0.303,0.719-0.794,1.285-1.475
				c0.328-0.392,0.567-0.586,0.72-0.586c0.327,0,0.353,0.194,0.075,0.586c-1.211,1.727-2.012,3.536-2.401,5.427
				c-0.14,0.466-0.315,0.7-0.528,0.7c-0.103,0-0.234-0.058-0.397-0.17c-0.644-0.429-1.009-0.682-1.097-0.756
				c-0.252-0.253-0.379-0.58-0.379-0.983c0-0.202,0.031-0.448,0.096-0.738c1.462-8.028,3.347-14.868,5.652-20.515
				c1.739-4.261,3.297-7.021,4.672-8.282c0.377-0.353,0.756-0.522,1.133-0.511c0.342,0.013,0.781,0.227,1.324,0.643
				C86.905,1.648,87.522,2.158,88.141,2.675z"/>
			<path fill="none" stroke="#FFFFFF" d="M95.497,2.675c0.164,0.126,0.246,0.259,0.246,0.397c0,0.238-0.146,0.358-0.437,0.358
				c-0.126,0-0.259-0.038-0.396-0.113c-0.58-0.29-1.016-0.435-1.306-0.435c-0.794,0-1.664,0.769-2.608,2.307
				c-3.43,5.584-5.869,12.802-7.317,21.65c-0.038,0.239-0.103,0.561-0.188,0.964c0.289-0.303,0.719-0.794,1.285-1.475
				c0.327-0.392,0.566-0.586,0.719-0.586c0.327,0,0.354,0.194,0.075,0.586c-1.21,1.727-2.011,3.536-2.401,5.427
				c-0.139,0.466-0.314,0.7-0.528,0.7c-0.103,0-0.233-0.058-0.397-0.17c-0.643-0.429-1.009-0.682-1.097-0.756
				c-0.252-0.253-0.378-0.58-0.378-0.983c0-0.202,0.031-0.448,0.095-0.738c1.462-8.028,3.347-14.868,5.653-20.515
				c1.738-4.261,3.296-7.021,4.671-8.282c0.378-0.353,0.756-0.522,1.134-0.511c0.342,0.013,0.781,0.227,1.324,0.643
				C94.261,1.648,94.877,2.158,95.497,2.675z"/>
			<path fill="none" stroke="#FFFFFF" d="M97.613,26.632c-3.063,3.92-5.219,5.88-6.467,5.88c-0.593,0-1.343-0.41-2.25-1.229
				c-0.944-0.441-1.418-1.034-1.418-1.777c0-0.139,0.013-0.284,0.037-0.436c0.228-1.727,0.688-3.637,1.381-5.729
				c-0.467-0.239-0.699-0.466-0.699-0.681c0-0.178,0.132-0.266,0.396-0.266c0.201,0,0.41,0.058,0.625,0.17
				c1.121-2.521,2.13-4.311,3.025-5.37c0.579-0.705,1.103-1.059,1.568-1.059c0.214,0,0.744,0.183,1.588,0.548
				c-0.063-0.378,0.045-0.599,0.322-0.662c0.012,0,0.309,0,0.889,0c0.541,0,0.813,0.095,0.813,0.283
				c0,0.038-0.019,0.146-0.057,0.322c-0.037,0.177-0.057,0.34-0.057,0.492c0,0.454,0.006,1.015,0.02,1.683
				c0.012,0.668,0.02,1.116,0.02,1.342c0,1.563-0.43,2.654-1.286,3.271c-0.781,0.566-1.664,0.851-2.647,0.851
				c-0.517,0-1.373-0.139-2.57-0.416c-0.215,0.392-0.453,1.153-0.719,2.288c-0.354,1.438-0.518,2.71-0.492,3.819
				c0.014,0.656,0.222,0.982,0.625,0.982c0.15,0,0.347-0.038,0.586-0.113c1.462-0.518,3.498-2.093,6.107-4.728
				c0.164-0.164,0.327-0.246,0.491-0.246c0.239,0,0.358,0.113,0.358,0.34C97.801,26.335,97.739,26.48,97.613,26.632z M95.4,18.274
				c0-0.491-0.106-0.737-0.321-0.737c-0.139,0-0.34,0.101-0.604,0.303c-1.234,0.996-2.318,2.742-3.253,5.238
				c0.253,0.038,0.692,0.074,1.323,0.112c1.021,0.038,1.783-0.194,2.289-0.699c0.377-0.379,0.586-1.003,0.623-1.872
				C95.42,21.262,95.4,20.48,95.4,18.274z"/>
		</g>
	</g>
	<path fill="#FFFFFF" d="M31.75,30.18c0,3.022-2.645,5.473-5.907,5.473H5.907C2.645,35.653,0,33.203,0,30.18V7.376
		c0-3.022,2.645-5.474,5.907-5.474h19.937c3.262,0,5.907,2.451,5.907,5.474L31.75,30.18L31.75,30.18z"/>
	<path fill="#0079BF" d="M29.066,14.478c0,1.104-0.896,2-2,2H5.191c-1.104,0-2-0.896-2-2V8.36c0-1.104,0.896-2,2-2h21.875
		c1.104,0,2,0.896,2,2V14.478z"/>
	<path fill="#0079BF" d="M15.875,26.544c0,1.104-0.448,2-1,2H3.938c-0.552,0-1-0.896-1-2v-6.117c0-1.104,0.448-2,1-2h10.938
		c0.552,0,1,0.896,1,2L15.875,26.544L15.875,26.544z"/>
</g>
</svg>
