<?xml version="1.0" encoding="UTF-8" standalone="no"?>
<svg width="138px" height="42px" viewBox="0 0 138 42" version="1.1" xmlns="http://www.w3.org/2000/svg" xmlns:xlink="http://www.w3.org/1999/xlink" xmlns:sketch="http://www.bohemiancoding.com/sketch/ns">
    <!-- Generator: Sketch Beta 3.1 (8603) - http://www.bohemiancoding.com/sketch -->
    <title>404</title>
    <desc>Created with Sketch Beta.</desc>
    <defs></defs>
    <g id="Page-1" stroke="none" stroke-width="1" fill="none" fill-rule="evenodd" sketch:type="MSPage">
        <path d="M18,42 L18,30 L0,30 L0,6 L6,6 L6,0 L18,0 L18,24 L24,24 L24,12 L36,12 L36,24 L42,24 L42,30 L36,30 L36,42 L18,42 Z M72,30 L72,18 L66,18 L66,12 L72,12 L72,6 L60,6 L60,18 L66,18 L66,24 L60,24 L60,30 L72,30 Z M54,42 L54,36 L48,36 L48,6 L54,6 L54,0 L84,0 L84,6 L90,6 L90,36 L84,36 L84,42 L54,42 Z M114,42 L114,30 L96,30 L96,6 L102,6 L102,0 L114,0 L114,24 L120,24 L120,12 L132,12 L132,24 L138,24 L138,30 L132,30 L132,42 L114,42 Z" id="404" fill="#626C73" sketch:type="MSShapeGroup"></path>
    </g>
</svg>