<?xml version="1.0" encoding="UTF-8"?>
<svg width="375px" height="667px" viewBox="0 0 375 667" version="1.1" xmlns="http://www.w3.org/2000/svg" xmlns:xlink="http://www.w3.org/1999/xlink">
    <!-- Generator: Sketch 52.4 (67378) - http://www.bohemiancoding.com/sketch -->
    <title>bg</title>
    <desc>Created with Sketch.</desc>
    <defs>
        <linearGradient x1="50%" y1="0%" x2="45.917881%" y2="162.958601%" id="linearGradient-1">
            <stop stop-color="#E6F6FF" offset="0%"></stop>
            <stop stop-color="#FAEFFF" offset="100%"></stop>
        </linearGradient>
        <linearGradient x1="50%" y1="0%" x2="50%" y2="100%" id="linearGradient-2">
            <stop stop-color="#D1A2DD" offset="0%"></stop>
            <stop stop-color="#B794DE" offset="100%"></stop>
        </linearGradient>
        <linearGradient x1="50%" y1="39.1908942%" x2="50%" y2="95.3308553%" id="linearGradient-3">
            <stop stop-color="#FDB3C8" offset="0%"></stop>
            <stop stop-color="#FE89AB" offset="100%"></stop>
        </linearGradient>
        <linearGradient x1="50%" y1="0%" x2="50%" y2="100%" id="linearGradient-4">
            <stop stop-color="#FFCE97" offset="0%"></stop>
            <stop stop-color="#FF9F9C" offset="100%"></stop>
        </linearGradient>
    </defs>
    <g id="页面-1" stroke="none" stroke-width="1" fill="none" fill-rule="evenodd">
        <g id="-开探-1" fill-rule="nonzero">
            <g id="bg" transform="translate(-121.000000, -67.000000)">
                <rect id="底色" fill="url(#linearGradient-1)" x="121" y="67" width="375" height="667"></rect>
                <path d="M272.3964,353.807339 L314.357924,378.033836 C317.451935,379.820164 319.357924,383.121434 319.357924,386.69409 L319.357924,435.147085 C319.357924,438.719741 317.451935,442.021011 314.357924,443.807339 L272.3964,468.033836 C269.302389,469.820164 265.49041,469.820164 262.3964,468.033836 L220.434875,443.807339 C217.340865,442.021011 215.434875,438.719741 215.434875,435.147085 L215.434875,386.69409 C215.434875,383.121434 217.340865,379.820164 220.434875,378.033836 L262.3964,353.807339 C265.49041,352.021011 269.302389,352.021011 272.3964,353.807339 Z" id="多边形-copy" fill="url(#linearGradient-2)" opacity="0.055417" transform="translate(267.396400, 410.920588) rotate(-17.000000) translate(-267.396400, -410.920588) "></path>
                <path d="M391.447222,18.8339735 L414.7892,32.3104708 C417.883211,34.0967988 419.7892,37.3980689 419.7892,40.9707248 L419.7892,67.9237195 C419.7892,71.4963754 417.883211,74.7976455 414.7892,76.5839735 L391.447222,90.0604708 C388.353211,91.8467988 384.541233,91.8467988 381.447222,90.0604708 L358.105244,76.5839735 C355.011233,74.7976455 353.105244,71.4963754 353.105244,67.9237195 L353.105244,40.9707248 C353.105244,37.3980689 355.011233,34.0967988 358.105244,32.3104708 L381.447222,18.8339735 C384.541233,17.0476455 388.353211,17.0476455 391.447222,18.8339735 Z" id="多边形-copy-3" fill-opacity="0.173516757" fill="#AC99D7" transform="translate(386.447222, 54.447222) rotate(-135.000000) translate(-386.447222, -54.447222) "></path>
                <path d="M123.800253,105.687004 L197.804717,148.413501 C200.898727,150.199829 202.804717,153.501099 202.804717,157.073755 L202.804717,242.52675 C202.804717,246.099406 200.898727,249.400676 197.804717,251.187004 L123.800253,293.913501 C120.706242,295.699829 116.894263,295.699829 113.800253,293.913501 L39.7957884,251.187004 C36.7017776,249.400676 34.7957884,246.099406 34.7957884,242.52675 L34.7957884,157.073755 C34.7957884,153.501099 36.7017776,150.199829 39.7957884,148.413501 L113.800253,105.687004 C116.894263,103.900676 120.706242,103.900676 123.800253,105.687004 Z" id="多边形-copy-2" fill="url(#linearGradient-3)" opacity="0.097609" transform="translate(118.800253, 199.800253) rotate(-105.000000) translate(-118.800253, -199.800253) "></path>
                <path d="M502.899878,348.570832 C510.813502,403.923463 534.849278,435.027555 575.007208,441.883107 C575.007208,441.883107 575.007208,441.883107 575.007208,441.883107 L575.007208,441.883107 C592.723817,448.432601 601.776552,468.104165 595.227058,485.820774 C588.677563,503.537383 569.006,512.590118 551.289391,506.040624 C550.252231,505.657205 549.234276,505.223713 548.239114,504.741674 C541.252341,501.357458 534.07885,497.941996 526.71862,494.49533 C496.476982,485.496187 461.954385,493.448867 423.150828,518.35337 L423.150828,518.35337 C414.784584,523.722907 403.649533,521.293597 398.279996,512.927353 C394.851416,507.585303 394.490013,500.832314 397.328857,495.154848 L473.045465,343.727561 L473.045465,343.727561 C476.958708,335.901383 486.475389,332.729321 494.301568,336.642564 C498.950942,338.967342 502.164128,343.424965 502.899821,348.57084 Z" id="三角形" fill="url(#linearGradient-4)" opacity="0.248835" transform="translate(496.393287, 428.086756) rotate(-147.000000) translate(-496.393287, -428.086756) "></path>
            </g>
        </g>
    </g>
</svg>