<?xml version="1.0" encoding="UTF-8" standalone="no"?>
<svg width="362px" height="394px" viewBox="0 0 362 394" version="1.1" xmlns="http://www.w3.org/2000/svg" xmlns:xlink="http://www.w3.org/1999/xlink">
    <!-- Generator: Sketch Beta 3.8.3 (29801) - http://www.bohemiancoding.com/sketch -->
    <title>Browser</title>
    <desc>Created with Sketch Beta.</desc>
    <defs>
        <rect id="path-1" x="0" y="0" width="345" height="377" rx="3"></rect>
        <filter x="-50%" y="-50%" width="200%" height="200%" filterUnits="objectBoundingBox" id="filter-2">
            <feOffset dx="0" dy="2" in="SourceAlpha" result="shadowOffsetOuter1"></feOffset>
            <feGaussianBlur stdDeviation="4" in="shadowOffsetOuter1" result="shadowBlurOuter1"></feGaussianBlur>
            <feColorMatrix values="0 0 0 0 0   0 0 0 0 0   0 0 0 0 0  0 0 0 0.5 0" type="matrix" in="shadowBlurOuter1"></feColorMatrix>
        </filter>
        <rect id="path-3" x="53" y="4" width="284.11254" height="16"></rect>
        <filter x="-50%" y="-50%" width="200%" height="200%" filterUnits="objectBoundingBox" id="filter-4">
            <feGaussianBlur stdDeviation="0.5" in="SourceAlpha" result="shadowBlurInner1"></feGaussianBlur>
            <feOffset dx="0" dy="0" in="shadowBlurInner1" result="shadowOffsetInner1"></feOffset>
            <feComposite in="shadowOffsetInner1" in2="SourceAlpha" operator="arithmetic" k2="-1" k3="1" result="shadowInnerInner1"></feComposite>
            <feColorMatrix values="0 0 0 0 0   0 0 0 0 0   0 0 0 0 0  0 0 0 0.46 0" type="matrix" in="shadowInnerInner1"></feColorMatrix>
        </filter>
    </defs>
    <g id="Page-1" stroke="none" stroke-width="1" fill="none" fill-rule="evenodd">
        <g id="Browser" transform="translate(8.640625, 6.493333)">
            <g id="Rectangle-10">
                <use fill="black" fill-opacity="1" filter="url(#filter-2)" xlink:href="#path-1"></use>
                <use fill="#E4E4E4" fill-rule="evenodd" xlink:href="#path-1"></use>
            </g>
            <rect id="Rectangle-11" fill="#524763" x="0" y="34.684" width="345" height="332.316"></rect>
            <g id="Rectangle-13">
                <use fill="#FFFFFF" fill-rule="evenodd" xlink:href="#path-3"></use>
                <use fill="black" fill-opacity="1" filter="url(#filter-4)" xlink:href="#path-3"></use>
            </g>
            <circle id="Oval-1" fill="#D8D8D8" cx="10" cy="9" r="5"></circle>
            <circle id="Oval-1-Copy" fill="#D8D8D8" cx="23" cy="9" r="5"></circle>
            <circle id="Oval-1-Copy-2" fill="#D8D8D8" cx="37" cy="9" r="5"></circle>
            <g id="logo-copy" transform="translate(23.000000, 59.000000)">
                <g id="Page-1">
                    <path d="M72.1899281,3.8340249 L72.1899281,72.846473 L4.15251799,72.846473 L4.15251799,3.8340249 L72.1899281,3.8340249 L72.1899281,3.8340249 L72.1899281,3.8340249 Z M76.0230216,0 L72.1254043,0 L3.8915482,0 L0,0 L0,3.74041079 L0,72.9656473 L0,77 L3.8915482,77 L72.1254043,77 L76.0230216,77 L76.0230216,72.9656473 L76.0230216,3.74041079 L76.0230216,0 L76.0230216,0 L76.0230216,0 Z" id="Shape" fill="#82D8D8"></path>
                    <polygon id="Shape" fill="#FFFFFF" points="32.2618705 51.439834 32.2618705 20.2152158 32.2618705 18.2116183 30.0556058 18.2116183 26.6463885 18.2116183 23.3179856 18.2116183 23.3179856 19.7516183 23.3179856 20.2152158 23.3179856 53.4629212 23.3179856 55.7984813 23.3179856 56.7429295 23.3179856 58.1493776 26.6463885 58.1493776 30.2261784 58.1493776 38.9193151 58.1493776 40.8863309 58.1493776 40.8863309 55.7984813 40.8863309 53.6351328 40.8863309 51.439834 38.9193151 51.439834"></polygon>
                    <polygon id="plus" fill="#82D8D8" points="58.3387252 30.033195 53.6633094 30.033195 53.6633094 26.7455187 53.6633094 25.2406639 53.049695 25.2406639 52.5657669 25.2406639 49.5999108 25.2406639 48.1915683 25.2406639 45.9971223 25.2406639 45.9971223 26.7455187 45.9971223 30.033195 43.0740691 30.033195 40.8863309 30.033195 40.8863309 32.9393859 40.8863309 35.2212697 40.8863309 37.7012448 43.0740691 37.7012448 45.9971223 37.7012448 45.9971223 41.7493361 45.9971223 42.4937759 48.1915683 42.4937759 49.5999108 42.4937759 52.5657669 42.4937759 53.049695 42.4937759 53.6633094 42.4937759 53.6633094 41.7493361 53.6633094 37.7012448 58.3387252 37.7012448 58.4546763 37.7012448 58.4546763 35.2212697 58.4546763 32.9393859 58.4546763 30.033195"></polygon>
                    <polygon id="Shape" fill="#FFFFFF" points="159.61257 11.8215768 157.156835 11.8215768 157.156835 14.2638506 157.156835 37.339249 150.768345 32.9949793 150.768345 14.2638506 150.768345 11.8215768 148.751499 11.8215768 145.917565 11.8215768 143.421583 11.8215768 143.421583 14.2638506 143.421583 35.5493983 143.421583 36.3708382 144.463226 36.8826805 158.498417 46.7278174 159.161862 47.6058091 159.754714 47.6058091 162.446823 47.6058091 163.545324 47.6058091 163.545324 44.8855685 163.545324 14.2638506 163.545324 11.8215768 162.446823 11.8215768"></polygon>
                    <polygon id="Shape" fill="#FFFFFF" points="110.201439 40.2572614 110.201439 14.2638506 110.201439 11.8215768 109.647876 11.8215768 106.813942 11.8215768 104.451799 11.8215768 104.451799 13.8785311 104.451799 14.2638506 104.451799 41.9071701 104.451799 43.8484647 104.451799 44.6341203 104.451799 46.6473029 106.813942 46.6473029 109.79002 46.6473029 117.017957 46.6473029 118.18705 46.6473029 118.18705 43.8484647 118.18705 42.049668 118.18705 40.2572614 117.017957 40.2572614"></polygon>
                    <polygon id="Shape" fill="#FFFFFF" points="195.807194 40.2572614 195.807194 14.2638506 195.807194 11.8215768 194.18324 11.8215768 191.349306 11.8215768 189.099281 11.8215768 189.099281 13.8785311 189.099281 14.2638506 189.099281 41.9071701 189.099281 43.8484647 189.099281 44.6341203 189.099281 46.6473029 191.349306 46.6473029 194.325384 46.6473029 201.553001 46.6473029 202.834532 46.6473029 202.834532 43.8484647 202.834532 42.049668 202.834532 40.2572614 201.553001 40.2572614"></polygon>
                    <polygon id="Shape" fill="#FFFFFF" points="169.614388 11.8215768 169.614388 46.6473029 183.669065 46.6473029 183.669065 40.2572614 175.044604 40.2572614 175.044604 30.6721992 181.433094 30.6721992 181.433094 25.2406639 175.044604 25.2406639 175.044604 18.8506224 183.669065 18.8506224 183.669065 11.8215768"></polygon>
                    <polygon id="Shape" fill="#FFFFFF" points="128.913324 11.8215768 125.936288 11.8215768 124.57554 11.8215768 124.57554 14.2638506 124.57554 16.9566141 124.57554 29.4328506 124.57554 32.268751 124.57554 41.9071701 124.57554 43.8484647 124.57554 46.6473029 125.936288 46.6473029 128.913324 46.6473029 137.177154 46.6473029 138.94964 46.6473029 138.94964 43.8484647 138.94964 42.049668 138.94964 40.2572614 137.177154 40.2572614 130.644604 40.2572614 130.644604 30.6721992 135.10377 30.6721992 137.033094 30.6721992 137.033094 28.262195 137.033094 26.4624398 137.033094 25.2406639 135.10377 25.2406639 130.644604 25.2406639 130.644604 18.8506224 137.177154 18.8506224 138.245948 18.8506224 138.94964 18.8506224 138.94964 17.099751 138.94964 14.2638506 138.94964 11.8215768 137.177154 11.8215768"></polygon>
                    <path d="M211.115292,21.0618963 L211.115292,27.5794191 C211.115292,28.103722 211.034797,28.5903237 210.876363,29.0420996 C210.718567,29.4913195 210.477721,29.8820705 210.153186,30.2117967 C209.829289,30.5428008 209.424578,30.803195 208.937137,30.9910622 C208.449695,31.179249 207.879203,31.2741411 207.221508,31.2741411 C206.602144,31.2741411 206.05497,31.185639 205.578069,31.0083154 C205.103404,30.8319502 204.706679,30.5795436 204.386935,30.253332 C204.066872,29.9280788 203.824429,29.5366888 203.660245,29.0801203 C203.494144,28.6213154 203.412052,28.1129876 203.412052,27.5532199 L203.412052,21.0618963 L205.540696,21.0618963 L205.540696,27.3941079 C205.540696,27.7660083 205.578069,28.0848714 205.650578,28.3487801 C205.724685,28.6120498 205.833609,28.8286722 205.978627,28.9960913 C206.123327,29.1641494 206.303801,29.2858797 206.518455,29.3638382 C206.734705,29.4424357 206.98737,29.4820539 207.277407,29.4820539 C207.878883,29.4820539 208.31362,29.3076058 208.581937,28.9574315 C208.849614,28.6085353 208.985689,28.0826349 208.985689,27.3794108 L208.985689,21.0615768 L211.115292,21.0615768 L211.115292,21.0618963 L211.115292,21.0618963 Z" id="Shape" fill="#82D8D8"></path>
                    <path d="M221.04556,24.2035602 C221.04556,24.6441535 220.9788,25.0671743 220.844642,25.4716639 C220.712719,25.875834 220.493275,26.2317593 220.186947,26.5394398 C219.881896,26.8474398 219.48006,27.0934564 218.982397,27.2768506 C218.483456,27.4615228 217.867286,27.5535394 217.132291,27.5535394 L216.643252,27.5535394 L216.643252,31.1361162 L214.506941,31.1361162 L214.506941,21.0622158 L217.30446,21.0622158 C217.950656,21.0622158 218.510927,21.1337842 218.982397,21.2785187 C219.453229,21.4238921 219.840691,21.6302905 220.14638,21.8980332 C220.45143,22.1680124 220.678222,22.4967801 220.825157,22.8846556 C220.971134,23.2718921 221.04556,23.7124855 221.04556,24.2035602 L221.04556,24.2035602 L221.04556,24.2035602 Z M216.643252,25.8023485 L217.063295,25.8023485 C217.66541,25.8023485 218.118035,25.6831743 218.423724,25.4445062 C218.729413,25.2048797 218.883056,24.8170041 218.883056,24.2792822 C218.883056,23.7799004 218.745065,23.409278 218.471318,23.1709295 C218.198529,22.9313029 217.770181,22.8111701 217.186912,22.8111701 L216.643252,22.8111701 L216.643252,25.8023485 L216.643252,25.8023485 L216.643252,25.8023485 Z" id="Shape" fill="#82D8D8"></path>
                    <polygon id="Shape" fill="#FFFFFF" points="214.819977 62.8265685 219.632745 60.7223278 214.819977 58.3490664 214.819977 56.5512282 221.946337 60.2654398 221.946337 61.3357718 214.819977 64.6157801 214.819977 62.8265685"></polygon>
                    <polygon id="Shape" fill="#FFFFFF" points="111.707525 64.6154606 104.581804 61.3354523 104.581804 60.2651203 111.707525 56.5509087 111.707525 58.3487469 106.895076 60.7220083 111.707525 62.826249 111.707525 64.6154606"></polygon>
                    <path d="M122.201099,66.3728178 L119.935962,66.3728178 L119.935962,57.5447011 L117.245653,57.5447011 L117.245653,55.6529616 L124.884077,55.6529616 L124.884077,57.5447011 L122.201099,57.5447011 L122.201099,66.3728178 L122.201099,66.3728178 Z M136.380582,55.6529616 L136.380582,62.5893391 C136.380582,63.1465984 136.296281,63.6647441 136.127678,64.1437915 C135.959075,64.6228392 135.702508,65.0383334 135.357971,65.3902867 C135.013434,65.7422399 134.582158,66.0184213 134.06413,66.2188389 C133.546103,66.4192568 132.937674,66.5194642 132.238826,66.5194642 C131.579074,66.5194642 130.996301,66.425367 130.490491,66.2371697 C129.984681,66.0489728 129.561958,65.7813454 129.222307,65.4342805 C128.882657,65.0872156 128.624869,64.6704993 128.448936,64.1841194 C128.273002,63.6977394 128.185036,63.1563751 128.185036,62.5600098 L128.185036,55.6529616 L130.450173,55.6529616 L130.450173,62.3913664 C130.450173,62.7873138 130.489269,63.1258195 130.567462,63.4068932 C130.645655,63.6879668 130.761721,63.9177109 130.915663,64.0961317 C131.069605,64.2745522 131.261419,64.4053106 131.49111,64.4884109 C131.720802,64.5715108 131.989585,64.6130602 132.29747,64.6130602 C132.937674,64.6130602 133.400715,64.42731 133.686607,64.0558038 C133.9725,63.6842977 134.115444,63.1246026 134.115444,62.3767019 L134.115444,55.6529616 L136.380582,55.6529616 L136.380582,55.6529616 Z M144.636986,66.3728178 L142.371849,66.3728178 L142.371849,57.5447011 L139.68154,57.5447011 L139.68154,55.6529616 L147.319965,55.6529616 L147.319965,57.5447011 L144.636986,57.5447011 L144.636986,66.3728178 L144.636986,66.3728178 Z M159.380921,60.9982252 C159.380921,61.8243377 159.284403,62.5771153 159.091365,63.2565806 C158.898326,63.9360458 158.603885,64.5177377 158.208034,65.0016734 C157.812183,65.4856091 157.312489,65.8595541 156.708939,66.123519 C156.105388,66.3874839 155.39311,66.5194642 154.572085,66.5194642 C153.751061,66.5194642 153.038783,66.3874839 152.435232,66.123519 C151.831682,65.8595541 151.33321,65.4856091 150.939802,65.0016734 C150.546394,64.5177377 150.253176,63.9348237 150.060137,63.2529143 C149.867098,62.5710048 149.770581,61.8145613 149.770581,60.9835604 C149.770581,60.1525598 149.867098,59.3985601 150.060137,58.7215387 C150.253176,58.0445177 150.547616,57.4664918 150.943467,56.9874444 C151.339318,56.508397 151.839012,56.1381184 152.442563,55.8765973 C153.046114,55.6150766 153.760835,55.4843181 154.586747,55.4843181 C155.407771,55.4843181 156.118827,55.6150766 156.719934,55.8765973 C157.321042,56.1381184 157.818292,56.5096188 158.211699,56.9911107 C158.605107,57.4726022 158.898326,58.0518499 159.091365,58.728871 C159.284403,59.4058923 159.380921,60.1623362 159.380921,60.9982252 L159.380921,60.9982252 L159.380921,60.9982252 Z M152.109023,60.9982252 C152.109023,61.5603728 152.157893,62.0650758 152.255634,62.5123497 C152.353375,62.9596238 152.50365,63.3384565 152.706463,63.6488598 C152.909275,63.9592631 153.16462,64.1975611 153.472504,64.3637613 C153.780389,64.5299615 154.146912,64.6130602 154.572085,64.6130602 C155.007033,64.6130602 155.379665,64.5299615 155.689993,64.3637613 C156.000321,64.1975611 156.254444,63.9592631 156.452369,63.6488598 C156.650295,63.3384565 156.796904,62.9596238 156.892202,62.5123497 C156.987499,62.0650758 157.035148,61.5603728 157.035148,60.9982252 C157.035148,60.4360776 156.987499,59.9313742 156.892202,59.4841004 C156.796904,59.0368266 156.650295,58.6567715 156.452369,58.343924 C156.254444,58.0310768 156.001543,57.7915567 155.693658,57.6253565 C155.385774,57.4591563 155.016807,57.3760576 154.586747,57.3760576 C154.161573,57.3760576 153.792606,57.4591563 153.479835,57.6253565 C153.167063,57.7915567 152.909275,58.0310768 152.706463,58.343924 C152.50365,58.6567715 152.353375,59.0368266 152.255634,59.4841004 C152.157893,59.9313742 152.109023,60.4360776 152.109023,60.9982252 L152.109023,60.9982252 L152.109023,60.9982252 Z M165.592105,60.4116392 L166.20787,60.4116392 C166.8383,60.4116392 167.290346,60.2857691 167.56402,60.0340245 C167.837695,59.7822802 167.974531,59.4120015 167.974531,58.9231778 C167.974531,58.4148007 167.827921,58.0530765 167.534698,57.8379937 C167.241475,57.6229113 166.786986,57.5153717 166.171217,57.5153717 L165.592105,57.5153717 L165.592105,60.4116392 L165.592105,60.4116392 Z M165.592105,62.2593845 L165.592105,66.3728178 L163.319637,66.3728178 L163.319637,55.6529616 L166.251854,55.6529616 C167.625115,55.6529616 168.639163,55.9181448 169.294028,56.4485185 C169.948893,56.9788926 170.276321,57.784218 170.276321,58.8645191 C170.276321,59.2311372 170.227451,59.5635324 170.12971,59.8617151 C170.031969,60.1598978 169.901242,60.4250806 169.737526,60.6572721 C169.57381,60.8894635 169.385661,61.0923224 169.173074,61.2658548 C168.960488,61.4393873 168.736908,61.5848102 168.50233,61.7021282 C169.044792,62.5722349 169.531047,63.3494531 169.961107,64.0338067 C170.146815,64.3271013 170.326412,64.6130589 170.499902,64.8916887 C170.673393,65.1703181 170.828554,65.4196147 170.965392,65.6395855 C171.102229,65.8595563 171.21463,66.0355304 171.302597,66.1675128 L171.427216,66.3728178 L168.90551,66.3728178 L166.581728,62.2593845 L165.592105,62.2593845 L165.592105,62.2593845 Z M178.510734,66.3728178 L173.635924,66.3728178 L173.635924,65.0823288 L174.94076,64.4810786 L174.94076,57.5447011 L173.635924,56.9434506 L173.635924,55.6529616 L178.510734,55.6529616 L178.510734,56.9434506 L177.205898,57.5447011 L177.205898,64.4810786 L178.510734,65.0823288 L178.510734,66.3728178 L178.510734,66.3728178 Z M188.181933,66.3728178 L187.448879,63.8211695 L183.754286,63.8211695 L183.013902,66.3728178 L180.719442,66.3728178 L184.201449,55.6089677 L186.979725,55.6089677 L190.476393,66.3728178 L188.181933,66.3728178 L188.181933,66.3728178 Z M186.92108,61.9147655 L186.232009,59.5684221 C186.202687,59.4804338 186.158704,59.3362329 186.10006,59.135815 C186.041415,58.9353971 185.979106,58.7142077 185.913131,58.4722399 C185.847156,58.230272 185.784847,57.9870856 185.726202,57.7426738 C185.667557,57.4982618 185.626018,57.2905145 185.601583,57.1194262 C185.582035,57.2269674 185.556378,57.3540599 185.524612,57.5007069 C185.492846,57.6473542 185.456194,57.8025536 185.414654,57.9663096 C185.373114,58.1300656 185.330353,58.2950411 185.28637,58.4612413 C185.242386,58.6274415 185.200847,58.7838627 185.16175,58.93051 C185.122654,59.0771573 185.087223,59.2066937 185.055457,59.3191233 C185.023691,59.4315525 185.000478,59.5146515 184.985817,59.5684221 L184.304077,61.9147655 L186.92108,61.9147655 L186.92108,61.9147655 Z M193.550105,66.3728178 L193.550105,55.6529616 L195.822573,55.6529616 L195.822573,64.4957432 L199.722421,64.4957432 L199.722421,66.3728178 L193.550105,66.3728178 L193.550105,66.3728178 Z M209.181035,63.3958946 C209.181035,63.8749423 209.099178,64.3063228 208.935462,64.6900496 C208.771745,65.0737764 208.532283,65.4012836 208.217069,65.6725811 C207.901854,65.9438783 207.515782,66.1528474 207.058843,66.2994947 C206.601904,66.4461417 206.077775,66.5194642 205.486442,66.5194642 C204.968414,66.5194642 204.468721,66.4656945 203.987346,66.3581533 C203.505971,66.2506118 203.060035,66.0893026 202.649522,65.8742198 L202.649522,63.7625108 C202.884101,63.8749404 203.121119,63.9837021 203.360585,64.0887991 C203.60005,64.1938964 203.843177,64.2879936 204.089974,64.3710936 C204.33677,64.4541938 204.583562,64.5201841 204.830358,64.5690663 C205.077154,64.6179489 205.322725,64.6423895 205.567078,64.6423895 C205.816318,64.6423895 206.030123,64.6142826 206.2085,64.5580678 C206.386878,64.501853 206.531044,64.4236424 206.641002,64.3234334 C206.750961,64.2232245 206.831596,64.1034646 206.88291,63.9641499 C206.934224,63.8248348 206.959881,63.6720796 206.959881,63.5058794 C206.959881,63.3054618 206.91712,63.1282656 206.831596,62.9742861 C206.746073,62.8203065 206.626342,62.6761057 206.4724,62.541679 C206.318458,62.4072523 206.132752,62.2764939 205.915278,62.1493998 C205.697805,62.0223057 205.454677,61.887881 205.18589,61.746122 C204.961085,61.6288044 204.709406,61.4870474 204.430844,61.3208472 C204.152282,61.154647 203.889607,60.9481222 203.64281,60.7012659 C203.396014,60.45441 203.189539,60.1562318 203.02338,59.8067227 C202.85722,59.4572133 202.774141,59.0380531 202.774141,58.5492293 C202.774141,58.0701817 202.853555,57.641245 203.012384,57.2624066 C203.171213,56.8835679 203.397236,56.5633929 203.690459,56.3018722 C203.983682,56.0403514 204.33921,55.8411585 204.757053,55.704288 C205.174896,55.5674171 205.642824,55.498983 206.160852,55.498983 C206.419865,55.498983 206.672767,55.5160913 206.919563,55.550309 C207.166359,55.5845268 207.410708,55.6334083 207.652617,55.6969554 C207.894526,55.7605028 208.137653,55.8387133 208.382006,55.9315897 C208.626358,56.0244664 208.878038,56.132006 209.137052,56.2542121 L208.403997,58.021302 C208.18408,57.9186489 207.978827,57.8282179 207.788232,57.7500061 C207.597637,57.6717942 207.411932,57.6058039 207.231111,57.5520333 C207.05029,57.4982627 206.873137,57.4579352 206.699647,57.43105 C206.526156,57.4041646 206.351446,57.3907222 206.175513,57.3907222 C205.794323,57.3907222 205.502326,57.4921516 205.299513,57.6950137 C205.0967,57.8978755 204.995295,58.1679467 204.995295,58.5052352 C204.995295,58.6861002 205.025839,58.8461877 205.086927,58.9855024 C205.148015,59.1248171 205.245755,59.2555756 205.380149,59.3777816 C205.514543,59.4999876 205.688031,59.6246359 205.900617,59.75173 C206.113204,59.8788244 206.370992,60.0230253 206.673989,60.1843371 C207.040519,60.3798669 207.37772,60.5790596 207.685604,60.7819216 C207.993488,60.9847834 208.258607,61.2096391 208.480968,61.4564953 C208.703329,61.7033513 208.875595,61.983199 208.997771,62.2960461 C209.119947,62.6088936 209.181035,62.975506 209.181035,63.3958946 L209.181035,63.3958946 L209.181035,63.3958946 Z" id="TUTORIALS" fill="#FFFFFF"></path>
                </g>
            </g>
        </g>
    </g>
</svg>