<?xml version="1.0" encoding="UTF-8" standalone="no"?>
<svg width="491px" height="370px" viewBox="0 0 491 370" version="1.1" xmlns="http://www.w3.org/2000/svg" xmlns:xlink="http://www.w3.org/1999/xlink">
    <!-- Generator: Sketch Beta 3.8.3 (29801) - http://www.bohemiancoding.com/sketch -->
    <title>LappyToppy Copy</title>
    <desc>Created with Sketch Beta.</desc>
    <defs>
        <rect id="path-1" x="47" y="0" width="396" height="246" rx="7"></rect>
        <mask id="mask-3" maskContentUnits="userSpaceOnUse" maskUnits="objectBoundingBox" x="-12" y="-12" width="420" height="270">
            <rect x="35" y="-12" width="420" height="270" fill="white"></rect>
            <use xlink:href="#path-1" fill="black"></use>
        </mask>
        <mask id="mask-4" maskContentUnits="userSpaceOnUse" maskUnits="objectBoundingBox" x="-9" y="-9" width="414" height="264">
            <rect x="38" y="-9" width="414" height="264" fill="white"></rect>
            <use xlink:href="#path-1" fill="black"></use>
        </mask>
        <path d="M35.8772863,260.439562 C37.3824641,256.88309 41.7321455,254 45.5948801,254 L444.440883,254 C448.302584,254 452.650941,256.889845 454.154791,260.458401 L489.588879,344.541599 C491.092021,348.108475 489.183416,351 485.31647,351 L4.54418588,351 C0.681456942,351 -1.22685689,348.110155 0.27546205,344.560438 L35.8772863,260.439562 Z" id="path-5"></path>
        <path d="M53.8249828,269.223134 C55.1067532,265.786192 59.1323548,263 62.8043537,263 L427.349329,263 C431.026728,263 435.042228,265.793488 436.317368,269.237188 L453.915255,316.762812 C455.190767,320.207516 453.243744,323 449.567734,323 L40.4265221,323 C36.7499405,323 34.8112833,320.206512 36.0903328,316.776866 L53.8249828,269.223134 Z" id="path-7"></path>
    </defs>
    <g id="Page-1" stroke="none" stroke-width="1" fill="none" fill-rule="evenodd">
        <g id="LappyToppy-Copy" transform="translate(0.437500, 12.500000)">
            <mask id="mask-2" fill="white">
                <use xlink:href="#path-1"></use>
            </mask>
            <g id="Mask">
                <use fill="#4990E2" fill-rule="evenodd" xlink:href="#path-1"></use>
                <use stroke="#C2C2C2" mask="url(#mask-3)" stroke-width="24" xlink:href="#path-1"></use>
                <use stroke="#272727" mask="url(#mask-4)" stroke-width="18" xlink:href="#path-1"></use>
            </g>
            <rect id="Rectangle-32" fill="#949494" x="0" y="347" width="490" height="10" rx="5"></rect>
            <mask id="mask-6" fill="white">
                <use xlink:href="#path-5"></use>
            </mask>
            <use id="Mask-Copy" fill="#C2C2C2" xlink:href="#path-5"></use>
            <mask id="mask-8" fill="white">
                <use xlink:href="#path-7"></use>
            </mask>
            <use id="Mask-Copy-2" fill="#272727" xlink:href="#path-7"></use>
        </g>
    </g>
</svg>