<svg height="511pt" viewBox="-80 0 511 511.99927" width="511pt" xmlns="http://www.w3.org/2000/svg"><path d="m285.402344 132.957031c-3.480469-5.761719-10.378906-8.5-16.863282-6.691406-6.488281 1.808594-10.972656 7.714844-10.972656 14.449219 0 18.308594-14.894531 33.199218-33.199218 33.199218-18.308594 0-33.199219-14.890624-33.199219-33.199218v-125.714844c0-6.066406-3.65625-11.535156-9.261719-13.859375-5.605469-2.320313-12.058594-1.035156-16.347656 3.253906-1.679688 1.683594-41.683594 41.914063-82.207032 102.703125-23.894531 35.84375-42.964843 71.398438-56.675781 105.675782-17.367187 43.421874-26.175781 84.996093-26.175781 123.558593 0 96.863281 78.804688 175.667969 175.664062 175.667969 96.863282 0 175.667969-78.804688 175.667969-175.667969 0-62-22.351562-130.425781-66.429687-203.375zm-109.238282 349.042969c-80.316406 0-145.664062-65.347656-145.664062-145.667969 0-79.0625 42.136719-158.980469 77.488281-212.105469 19.160157-28.792968 38.46875-53.058593 53.175781-70.316406v86.804688c0 34.847656 28.351563 63.199218 63.199219 63.199218 21.304688 0 40.183594-10.59375 51.636719-26.792968 30.429688 57.300781 45.832031 110.746094 45.832031 159.210937 0 80.320313-65.34375 145.667969-145.667969 145.667969zm0 0"/><path d="m261.257812 253.167969h-64.265624c-8.285157 0-15 6.714843-15 14.996093-.003907 8.285157 6.714843 15.003907 14.996093 15.003907h28.058594l-64.085937 64.082031-34.835938-34.835938c-5.855469-5.855468-15.355469-5.855468-21.210938 0l-34.085937 34.082032c-5.859375 5.859375-5.859375 15.355468-.003906 21.214844 5.859375 5.859374 15.355469 5.855468 21.214843 0l23.480469-23.476563 34.832031 34.835937c2.8125 2.8125 6.628907 4.394532 10.609376 4.394532 3.976562 0 7.792968-1.582032 10.605468-4.394532l74.691406-74.6875v28.050782c0 8.28125 6.714844 15 15 15 8.285157 0 15-6.71875 15-15v-64.265625c0-8.285157-6.714843-15-15-15zm0 0"/></svg>